<?xml version="1.0" encoding="UTF-8"?>
<svg version="1.1" xmlns="http://www.w3.org/2000/svg" width="800" height="800">
<path d="M0 0 C264 0 528 0 800 0 C800 264 800 528 800 800 C536 800 272 800 0 800 C0 536 0 272 0 0 Z " fill="#FEFEFE" transform="translate(0,0)"/>
<path d="M0 0 C5.12441219 4.53607863 10.0809375 9.24328279 15 14 C15.83241211 14.79954102 15.83241211 14.79954102 16.68164062 15.61523438 C23.6527102 22.33342355 30.09236074 29.31295133 36 37 C36.42104004 37.54462891 36.84208008 38.08925781 37.27587891 38.65039062 C58.96359607 66.87055272 74.25843705 98.51556665 83 133 C83.29148926 134.14130371 83.29148926 134.14130371 83.58886719 135.30566406 C88.51444412 154.9649912 90.57583598 174.69681917 90.4375 194.9375 C90.43412628 195.90668365 90.43075256 196.87586731 90.42727661 197.87442017 C90.07089645 269.0943362 61.92251823 333.64929627 11.57128906 383.6628418 C5.96371112 389.15739237 0.28258046 394.27908954 -6 399 C-7.0989769 399.85153854 -8.197934 400.70310263 -9.296875 401.5546875 C-44.84233484 428.71848218 -88.30875522 446.35621482 -133 450 C-133.87648193 450.0839502 -134.75296387 450.16790039 -135.65600586 450.25439453 C-197.95671321 456.00459603 -259.49756547 436.2605466 -308 397 C-311.42109582 394.08763466 -314.71957709 391.06878273 -318 388 C-319.72699154 386.45589712 -321.45617577 384.91424328 -323.1875 383.375 C-330.8915558 376.41494959 -337.52142251 369.12409478 -344 361 C-344.87703605 359.92531737 -345.75465554 358.85111065 -346.6328125 357.77734375 C-374.47936979 323.42892518 -390.52057693 283.097368 -399 240 C-399.18369141 239.06897461 -399.36738281 238.13794922 -399.55664062 237.17871094 C-406.34229573 200.85788371 -402.4324634 162.37487774 -393 127 C-392.80180664 126.22253418 -392.60361328 125.44506836 -392.39941406 124.64404297 C-385.27334909 96.70504134 -371.62864567 70.40653081 -355 47 C-354.37714111 46.12045654 -354.37714111 46.12045654 -353.74169922 45.22314453 C-349.22830264 38.90289913 -344.37944267 33.00914456 -339.1171875 27.30078125 C-337.19792507 25.21508832 -335.3429487 23.09043777 -333.5 20.9375 C-327.2116122 13.73417356 -320.34539017 7.11518662 -313 1 C-312.48195801 0.56816406 -311.96391602 0.13632813 -311.43017578 -0.30859375 C-296.93484331 -12.3249435 -281.67863605 -22.27046616 -265 -31 C-264.26861816 -31.38542969 -263.53723633 -31.77085937 -262.78369141 -32.16796875 C-178.79130388 -75.83134341 -71.39315277 -61.34567234 0 0 Z " fill="#E5E5E5" transform="translate(554,203)"/>
<path d="M0 0 C1.34454254 0.00273422 1.34454254 0.00273422 2.71624756 0.00552368 C16.61180866 0.0529641 30.13867634 0.65982952 43.8125 3.3125 C44.75641602 3.48942383 45.70033203 3.66634766 46.67285156 3.84863281 C91.4589703 12.4039488 138.54792101 32.29351097 171.8125 64.3125 C171.8125 64.9725 171.8125 65.6325 171.8125 66.3125 C172.34359375 66.52777344 172.8746875 66.74304688 173.421875 66.96484375 C176.71174545 68.81942758 179.32445766 71.30761292 182.0625 73.875 C182.63444092 74.40786621 183.20638184 74.94073242 183.7956543 75.48974609 C188.39227006 79.82001347 193.04024785 84.22964665 196.8125 89.3125 C196.8125 89.9725 196.8125 90.6325 196.8125 91.3125 C197.8025 91.6425 198.7925 91.9725 199.8125 92.3125 C201.65521979 94.42223811 203.36997697 96.52533504 205.0625 98.75 C205.5562915 99.39106689 206.05008301 100.03213379 206.55883789 100.69262695 C244.81977745 150.6491049 266.0134863 210.34171935 266.0625 273.375 C266.06351212 274.55527771 266.06351212 274.55527771 266.06454468 275.75939941 C266.01131571 315.16475426 257.7209496 353.28071695 241.8125 389.3125 C241.46493652 390.11461914 241.11737305 390.91673828 240.75927734 391.74316406 C231.81399239 412.24896678 219.88380375 430.96262985 205.8125 448.3125 C204.94528287 449.39320539 204.07809349 450.47393305 203.2109375 451.5546875 C201.09997577 454.15985432 198.96372254 456.74057467 196.8125 459.3125 C196.214375 460.04597656 195.61625 460.77945312 195 461.53515625 C193.65041614 463.16698481 192.23868421 464.74717586 190.8125 466.3125 C190.1525 466.3125 189.4925 466.3125 188.8125 466.3125 C188.54856445 466.90474365 188.28462891 467.4969873 188.01269531 468.10717773 C186.76380961 470.40196711 185.5042538 471.81324963 183.609375 473.59765625 C182.64451172 474.5088623 182.64451172 474.5088623 181.66015625 475.43847656 C180.96792969 476.0775293 180.27570313 476.71658203 179.5625 477.375 C178.48548828 478.37418457 178.48548828 478.37418457 177.38671875 479.39355469 C142.17091684 511.70576094 98.75590415 533.77184639 52.0625 543.625 C50.34220581 543.98899902 50.34220581 543.98899902 48.5871582 544.36035156 C32.48918275 547.58519215 16.57724873 548.69850985 0.1875 548.625 C-1.12110489 548.62176727 -1.12110489 548.62176727 -2.45614624 548.61846924 C-16.55241199 548.56283603 -30.30192836 547.91560258 -44.1875 545.3125 C-45.2408252 545.11914062 -46.29415039 544.92578125 -47.37939453 544.7265625 C-97.77030555 535.18857204 -148.34367794 510.75106838 -184.1875 473.3125 C-184.1875 472.6525 -184.1875 471.9925 -184.1875 471.3125 C-184.826875 471.044375 -185.46625 470.77625 -186.125 470.5 C-188.1875 469.3125 -188.1875 469.3125 -189.1875 466.3125 C-190.1775 465.9825 -191.1675 465.6525 -192.1875 465.3125 C-194.0625 463.265625 -194.0625 463.265625 -196.1875 460.5625 C-198.70189641 457.4001473 -201.20843072 454.25739759 -203.87109375 451.21875 C-210.74365637 443.3661428 -216.64384189 435.14962288 -222.1875 426.3125 C-222.57147949 425.70148438 -222.95545898 425.09046875 -223.35107422 424.4609375 C-251.71190355 378.9868572 -266.39567601 327.73626128 -266.4375 274.125 C-266.43817474 273.33903442 -266.43884949 272.55306885 -266.43954468 271.74328613 C-266.38684127 232.77822956 -257.91739917 194.92710385 -242.1875 159.3125 C-241.85105469 158.54325195 -241.51460937 157.77400391 -241.16796875 156.98144531 C-232.97790481 138.40696763 -222.15980223 121.50389057 -210.3125 105.0625 C-209.83562744 104.39331543 -209.35875488 103.72413086 -208.86743164 103.03466797 C-207.69094349 101.42277991 -206.44493639 99.86206807 -205.1875 98.3125 C-204.5275 98.3125 -203.8675 98.3125 -203.1875 98.3125 C-202.89875 97.714375 -202.61 97.11625 -202.3125 96.5 C-201.1875 94.3125 -201.1875 94.3125 -199.1875 91.3125 C-198.5275 91.3125 -197.8675 91.3125 -197.1875 91.3125 C-196.78132446 90.42522217 -196.78132446 90.42522217 -196.36694336 89.52001953 C-195.2014406 87.33859209 -193.99525709 85.79639752 -192.31640625 83.9921875 C-191.74817139 83.37972168 -191.17993652 82.76725586 -190.59448242 82.13623047 C-189.98580322 81.49314941 -189.37712402 80.85006836 -188.75 80.1875 C-188.11747314 79.51734863 -187.48494629 78.84719727 -186.83325195 78.15673828 C-159.11208625 49.04689084 -123.79349495 27.95154443 -86.1875 14.3125 C-85.37039551 14.01263184 -84.55329102 13.71276367 -83.71142578 13.40380859 C-73.55164335 9.74128571 -63.18318601 7.29716633 -52.625 5.0625 C-50.88718262 4.6927002 -50.88718262 4.6927002 -49.11425781 4.31542969 C-32.76836377 1.011521 -16.64636459 -0.07073087 0 0 Z M-164.1875 83.3125 C-165.89394278 84.83545431 -167.60230321 86.35626245 -169.3125 87.875 C-177.38095741 95.16304499 -184.40078296 102.81414181 -191.1875 111.3125 C-192.17556641 112.49972656 -192.17556641 112.49972656 -193.18359375 113.7109375 C-223.21097572 150.08213256 -241.79331409 196.65068476 -247.1875 243.3125 C-247.2803125 244.06869629 -247.373125 244.82489258 -247.46875 245.60400391 C-249.98686678 268.92806056 -249.72653015 294.30678403 -245.1875 317.3125 C-244.97287109 318.40336914 -244.75824219 319.49423828 -244.53710938 320.61816406 C-239.01669267 347.98452729 -230.41278719 373.67142165 -217.1875 398.3125 C-216.87490234 398.89902344 -216.56230469 399.48554687 -216.24023438 400.08984375 C-198.43757461 433.18878468 -171.98920109 462.83670306 -141.1875 484.3125 C-140.22070312 484.9919165 -140.22070312 484.9919165 -139.234375 485.68505859 C-115.86140578 501.93511544 -89.90354375 513.83052057 -62.31982422 520.77441406 C-60.24100642 521.29899781 -58.16967076 521.84769296 -56.09765625 522.3984375 C2.28449161 537.49726884 67.49399859 525.85019596 119.32714844 495.85742188 C129.67877556 489.67626344 139.49083585 482.95862452 148.8125 475.3125 C149.34584961 474.88066406 149.87919922 474.44882812 150.42871094 474.00390625 C164.80765909 462.310949 178.71054914 449.19425945 189.8125 434.3125 C190.28961426 433.68472656 190.76672852 433.05695313 191.25830078 432.41015625 C203.3403493 416.46407932 213.36120428 399.43790591 221.8125 381.3125 C222.13814941 380.62349609 222.46379883 379.93449219 222.79931641 379.22460938 C238.45524969 345.66854759 244.04989602 309.31977277 244.1875 272.625 C244.19526459 271.6856662 244.20302917 270.7463324 244.21102905 269.77853394 C244.33087043 251.37174101 242.41480874 233.36196844 238.125 215.4375 C237.87081299 214.36290527 237.61662598 213.28831055 237.35473633 212.18115234 C226.50596708 167.7924437 204.47301241 128.15621437 172.8125 95.3125 C172.27834473 94.75643066 171.74418945 94.20036133 171.19384766 93.62744141 C164.12663521 86.30820355 156.85072061 79.57325492 148.8125 73.3125 C147.40871094 72.16587891 147.40871094 72.16587891 145.9765625 70.99609375 C124.33080032 53.66279062 99.10231344 40.84965766 72.88061523 32.01098633 C71.5029148 31.54568106 70.12988083 31.06632147 68.76196289 30.57299805 C-9.99649303 2.78172878 -104.18051261 27.24379503 -164.1875 83.3125 Z " fill="#E5E5E5" transform="translate(400.1875,125.6875)"/>
<path d="M0 0 C3.2212275 1.49410532 5.16106972 3.40155419 7.6340332 5.95214844 C8.34166054 6.67182297 8.34166054 6.67182297 9.06358337 7.40603638 C10.56429338 8.93564292 12.05070909 10.4782529 13.53637695 12.02246094 C15.02811423 13.55686059 16.52270648 15.08836897 18.0198822 16.61746216 C19.37846787 18.007507 20.7292433 19.40517263 22.07958984 20.80322266 C26.69873888 25.3258156 29.00060016 26.53688246 35.6105957 26.84277344 C36.65953255 26.89354538 36.65953255 26.89354538 37.72966003 26.94534302 C46.67997965 27.32615491 55.64632734 27.15558423 64.60009766 26.97607422 C66.83541312 26.93393865 69.07030657 26.91040975 71.3059082 26.88964844 C72.61277588 26.86757324 73.91964355 26.84549805 75.26611328 26.82275391 C78.47387695 27.14746094 78.47387695 27.14746094 80.40136719 28.50146484 C81.96963729 30.90831142 81.800267 32.8057513 81.72387695 35.64746094 C81.7084082 36.60652344 81.69293945 37.56558594 81.67700195 38.55371094 C81.47387695 41.14746094 81.47387695 41.14746094 80.47387695 44.14746094 C80.31495058 47.62514399 80.35803594 51.07073321 80.43334961 54.55126953 C80.48857153 57.59451031 80.40525474 60.59063415 80.22583008 63.62841797 C79.94581972 71.60802247 80.24863803 77.81624918 85.7414856 83.96734619 C88.74519953 86.96190104 91.88077663 89.76156829 95.09887695 92.52246094 C97.04223359 94.25481355 98.97155773 96.00000699 100.88729858 97.7628479 C102.07196989 98.84618618 103.27457039 99.91032201 104.49624634 100.95175171 C108.41197324 104.44085275 108.41197324 104.44085275 108.6940918 107.66113281 C107.02077677 111.07070468 104.55282641 113.21955695 101.72387695 115.65527344 C100.54231409 116.72250187 99.36386586 117.7931867 98.18823242 118.86694336 C97.57832458 119.42255951 96.96841675 119.97817566 96.34002686 120.55062866 C84.78240252 130.46414364 84.78240252 130.46414364 79.28979492 144.00195312 C79.3671451 147.05632641 79.63981013 150.00189754 80.1574707 153.01318359 C80.67714096 156.51855196 80.46147652 159.99128608 80.34887695 163.52246094 C80.33987926 167.58042277 80.62598937 171.18847814 81.47387695 175.14746094 C81.60692788 176.66475324 81.69209713 178.18717779 81.72387695 179.70996094 C81.7496582 180.45375 81.77543945 181.19753906 81.80200195 181.96386719 C81.36301764 184.88520324 80.64977553 186.1382461 78.47387695 188.14746094 C75.4777832 188.57324219 75.4777832 188.57324219 72.03637695 188.45996094 C70.90329102 188.43546875 69.77020508 188.41097656 68.6027832 188.38574219 C66.0403449 188.19060019 63.93924512 187.76877348 61.47387695 187.14746094 C59.62149619 187.05605173 57.76600486 187.01741433 55.91137695 187.02246094 C54.96133789 187.01988281 54.01129883 187.01730469 53.0324707 187.01464844 C50.35263315 187.039751 50.35263315 187.039751 47.47387695 188.14746094 C45.73605957 188.0669751 45.73605957 188.0669751 43.96313477 187.98486328 C36.3091841 187.656457 30.66629272 188.09532976 24.83361816 193.41314697 C21.84812592 196.43788639 19.01498691 199.56847434 16.22387695 202.77246094 C14.47723692 204.71509835 12.71927523 206.64513984 10.94317627 208.56088257 C9.84974282 209.7463167 8.77457681 210.94893436 7.72088623 212.16983032 C4.19002667 216.07971326 4.19002667 216.07971326 0.97827148 216.38354492 C-2.54632177 214.64392554 -4.83114412 212.04076291 -7.39331055 209.14355469 C-8.53739922 207.91471449 -9.68329339 206.68755328 -10.83081055 205.46191406 C-12.61786979 203.53326926 -14.39060897 201.59683669 -16.13354492 199.62817383 C-23.0349702 191.34735315 -23.0349702 191.34735315 -32.58227539 187.32568359 C-36.27757278 187.20073429 -39.86305353 187.67161296 -43.52612305 188.14746094 C-46.26708984 187.96508789 -46.26708984 187.96508789 -48.40112305 187.64746094 C-53.28391964 187.00134419 -58.5936098 186.38087034 -63.40893555 187.63964844 C-66.1621109 188.30000415 -68.75957089 188.35539325 -71.58862305 188.39746094 C-73.15290039 188.43613281 -73.15290039 188.43613281 -74.7487793 188.47558594 C-77.52612305 188.14746094 -77.52612305 188.14746094 -79.3815918 186.99902344 C-81.01218703 184.36113217 -80.85287965 182.35040085 -80.77612305 179.27246094 C-80.7606543 178.24378906 -80.74518555 177.21511719 -80.72924805 176.15527344 C-80.54247022 173.3895248 -80.07012134 170.85881752 -79.52612305 168.14746094 C-79.28286174 163.29654421 -79.3266993 158.51849921 -80.02612305 153.70996094 C-80.52612305 150.14746094 -80.52612305 150.14746094 -80.11791992 147.64477539 C-79.59620073 143.61135336 -79.31210503 140.0433719 -81.59033203 136.48550415 C-85.15774028 132.17970209 -89.36615745 128.4910879 -93.52612305 124.77246094 C-95.39252299 123.07227369 -97.24908943 121.36376502 -99.08984375 119.63583374 C-100.23113813 118.56761295 -101.38810854 117.51582999 -102.56201172 116.48355103 C-105.10335219 114.13351909 -106.43681883 112.52796518 -107.23486328 109.12768555 C-106.26628689 105.0548602 -103.96930927 103.19026428 -100.8737793 100.61230469 C-99.68890495 99.55870064 -98.50720491 98.50151816 -97.32836914 97.44116211 C-96.40734406 96.62015518 -96.40734406 96.62015518 -95.4677124 95.78256226 C-83.58446909 85.59191515 -83.58446909 85.59191515 -78.33984375 71.47753906 C-78.41890317 68.06821967 -78.68193066 64.7571931 -79.2097168 61.38769531 C-79.67667467 58.08151827 -79.51969802 54.91988195 -79.40112305 51.58496094 C-79.39063101 47.84611371 -79.39063101 47.84611371 -80.01831055 44.18652344 C-80.69637267 41.46384323 -80.73444615 38.88773217 -80.77612305 36.08496094 C-80.8019043 35.04210937 -80.82768555 33.99925781 -80.85424805 32.92480469 C-80.52612305 30.14746094 -80.52612305 30.14746094 -79.37768555 28.29199219 C-76.73979428 26.66139695 -74.72906296 26.82070433 -71.65112305 26.89746094 C-70.10811523 26.92066406 -70.10811523 26.92066406 -68.53393555 26.94433594 C-65.52612305 27.14746094 -65.52612305 27.14746094 -62.9909668 27.65527344 C-60.26202554 28.20019673 -57.74451876 28.28019639 -54.96362305 28.27246094 C-54.03420898 28.27503906 -53.10479492 28.27761719 -52.1472168 28.28027344 C-49.65199128 28.26369176 -49.65199128 28.26369176 -47.85546875 27.62304688 C-45.52612305 27.14746094 -45.52612305 27.14746094 -41.90014648 27.29248047 C-34.40908084 27.58548821 -28.76974496 27.23532392 -23.04162598 22.03533936 C-20.16880276 19.12708125 -17.4520037 16.11179954 -14.77612305 13.02246094 C-13.10084446 11.15113911 -11.4142369 9.2924745 -9.70941162 7.44802856 C-8.66043481 6.30709327 -7.62975053 5.14899095 -6.6206665 3.97262573 C-3.21692621 0.18778616 -3.21692621 0.18778616 0 0 Z " fill="#101010" transform="translate(397.526123046875,291.8525390625)"/>
<path d="M0 0 C5.12441219 4.53607863 10.0809375 9.24328279 15 14 C15.83241211 14.79954102 15.83241211 14.79954102 16.68164062 15.61523438 C23.6527102 22.33342355 30.09236074 29.31295133 36 37 C36.42104004 37.54462891 36.84208008 38.08925781 37.27587891 38.65039062 C58.96359607 66.87055272 74.25843705 98.51556665 83 133 C83.29148926 134.14130371 83.29148926 134.14130371 83.58886719 135.30566406 C88.51444412 154.9649912 90.57583598 174.69681917 90.4375 194.9375 C90.43412628 195.90668365 90.43075256 196.87586731 90.42727661 197.87442017 C90.07089645 269.0943362 61.92251823 333.64929627 11.57128906 383.6628418 C5.96371112 389.15739237 0.28258046 394.27908954 -6 399 C-7.0989769 399.85153854 -8.197934 400.70310263 -9.296875 401.5546875 C-44.84233484 428.71848218 -88.30875522 446.35621482 -133 450 C-133.87648193 450.0839502 -134.75296387 450.16790039 -135.65600586 450.25439453 C-197.95671321 456.00459603 -259.49756547 436.2605466 -308 397 C-311.42109582 394.08763466 -314.71957709 391.06878273 -318 388 C-319.72699154 386.45589712 -321.45617577 384.91424328 -323.1875 383.375 C-330.8915558 376.41494959 -337.52142251 369.12409478 -344 361 C-344.87703605 359.92531737 -345.75465554 358.85111065 -346.6328125 357.77734375 C-374.47936979 323.42892518 -390.52057693 283.097368 -399 240 C-399.18369141 239.06897461 -399.36738281 238.13794922 -399.55664062 237.17871094 C-406.34229573 200.85788371 -402.4324634 162.37487774 -393 127 C-392.80180664 126.22253418 -392.60361328 125.44506836 -392.39941406 124.64404297 C-385.27334909 96.70504134 -371.62864567 70.40653081 -355 47 C-354.37714111 46.12045654 -354.37714111 46.12045654 -353.74169922 45.22314453 C-349.22830264 38.90289913 -344.37944267 33.00914456 -339.1171875 27.30078125 C-337.19792507 25.21508832 -335.3429487 23.09043777 -333.5 20.9375 C-327.2116122 13.73417356 -320.34539017 7.11518662 -313 1 C-312.48195801 0.56816406 -311.96391602 0.13632813 -311.43017578 -0.30859375 C-296.93484331 -12.3249435 -281.67863605 -22.27046616 -265 -31 C-264.26861816 -31.38542969 -263.53723633 -31.77085937 -262.78369141 -32.16796875 C-178.79130388 -75.83134341 -71.39315277 -61.34567234 0 0 Z M-306 0 C-306.57024902 0.46873535 -307.14049805 0.9374707 -307.72802734 1.42041016 C-320.74123397 12.13482241 -332.59701408 23.71181095 -343 37 C-343.639375 37.76054687 -344.27875 38.52109375 -344.9375 39.3046875 C-367.95888174 66.8746487 -383.96878392 102.18601564 -392 137 C-392.18546387 137.79148437 -392.37092773 138.58296875 -392.56201172 139.3984375 C-393.1191584 141.80414333 -393.65771363 144.21313016 -394.1875 146.625 C-394.42001465 147.66068115 -394.42001465 147.66068115 -394.65722656 148.71728516 C-397.9904436 164.58819113 -398.43812132 180.5269815 -398.4375 196.6875 C-398.43923218 197.76249756 -398.44096436 198.83749512 -398.44274902 199.94506836 C-398.43011031 217.85878288 -396.93164957 234.50835475 -393 252 C-392.69266047 253.5679893 -392.390012 255.13691124 -392.09375 256.70703125 C-384.8881828 293.01281432 -366.10952081 328.20647449 -342.875 356.6875 C-340.42815848 359.70527121 -338.08127511 362.79573292 -335.73828125 365.89453125 C-333.64111043 368.43469995 -331.34806117 370.68937169 -329 373 C-327.97829373 374.05258063 -326.95888524 375.107395 -325.94140625 376.1640625 C-318.65778578 383.65939729 -311.16040049 390.4354287 -302.77539062 396.67333984 C-300.98657115 398.0100347 -299.21935568 399.37192442 -297.453125 400.73828125 C-277.34003695 416.11615817 -254.02701112 428.0528636 -230 436 C-228.90558594 436.3705249 -228.90558594 436.3705249 -227.7890625 436.74853516 C-183.37493303 451.50651294 -133.64489164 451.29370237 -89 438 C-88.21463867 437.76941895 -87.42927734 437.53883789 -86.62011719 437.30126953 C-51.13972641 426.71251832 -19.7927299 407.74382981 7.17578125 382.578125 C9.14152406 380.78367098 11.10107108 379.07314588 13.15625 377.390625 C15.40446525 375.50064185 17.30005066 373.7264818 19.1875 371.5 C19.7753125 370.80777344 20.363125 370.11554688 20.96875 369.40234375 C21.6390625 368.60957031 22.309375 367.81679688 23 367 C23.8146875 366.07316406 24.629375 365.14632813 25.46875 364.19140625 C36.36055158 351.72486238 45.78268449 338.17843839 53.97509766 323.79882812 C54.96467708 322.06199601 55.97226022 320.33545982 56.98046875 318.609375 C63.54014733 306.93026663 68.25868741 294.50380459 73 282 C73.30711914 281.21286621 73.61423828 280.42573242 73.93066406 279.61474609 C83.89185262 253.91205707 87.43335632 224.93717155 87.3125 197.5 C87.31134186 196.67805145 87.31018372 195.85610291 87.30899048 195.00924683 C87.26973934 180.83787253 86.32162901 166.99682469 84 153 C83.89316895 152.30616211 83.78633789 151.61232422 83.67626953 150.89746094 C76.35033012 103.95851912 52.63504084 61.53105193 22 26 C21.34902344 25.22398437 20.69804688 24.44796875 20.02734375 23.6484375 C16.69969513 19.72196373 13.20407549 16.28555515 9.2734375 12.96484375 C7.09755976 11.08431711 5.01003471 9.12848651 2.92382812 7.1496582 C-43.40989508 -36.48227923 -106.55019379 -55.10677859 -169.09658813 -53.36882019 C-218.71323765 -51.56758244 -267.98563175 -31.72126137 -306 0 Z " fill="#1E1E1E" transform="translate(554,203)"/>
<path d="M0 0 C12.47896224 -0.69497281 21.65251658 0.69373763 31.41699219 9.33154297 C39.7689523 18.74536599 40.32501043 29.16468494 40.47949219 41.14404297 C38.89981412 41.8193252 37.31557316 42.48393991 35.72949219 43.14404297 C34.84777344 43.51529297 33.96605469 43.88654297 33.05761719 44.26904297 C30.47949219 45.14404297 30.47949219 45.14404297 26.47949219 45.14404297 C24.9311676 44.04309082 24.9311676 44.04309082 23.44262695 42.48193359 C22.87846573 41.90133179 22.3143045 41.32072998 21.73304749 40.72253418 C20.83603371 39.77102478 20.83603371 39.77102478 19.92089844 38.80029297 C18.63517386 37.47859792 17.34936394 36.15698589 16.06347656 34.83544922 C14.0475578 32.73861826 12.03598341 30.63775097 10.02709961 28.53417969 C8.08553363 26.50825978 6.12905487 24.49766147 4.17089844 22.48779297 C3.57491348 21.85345337 2.97892853 21.21911377 2.36488342 20.56555176 C-0.93994287 17.06001138 -0.93994287 17.06001138 -5.4387207 15.74755859 C-6.46920532 15.94381836 -6.46920532 15.94381836 -7.52050781 16.14404297 C-8.07566985 18.34208606 -8.07566985 18.34208606 -7.52050781 21.14404297 C-5.61881777 23.77556138 -3.29444578 25.95026965 -0.95800781 28.19482422 C0.04081421 29.18303413 0.04081421 29.18303413 1.05981445 30.19120789 C3.18825961 32.2916759 5.33342897 34.37409348 7.47949219 36.45654297 C8.92594102 37.87791355 10.3712681 39.30042665 11.81542969 40.72412109 C15.35723931 44.21081688 18.91414758 47.68142327 22.47949219 51.14404297 C20.87263052 55.17279904 19.19741439 59.16158695 17.47949219 63.14404297 C5.66292619 63.76505958 -4.28868271 62.6071739 -13.73535156 54.98388672 C-20.12234922 48.40122611 -23.81229968 40.24587854 -23.70800781 31.14404297 C-23.69833984 30.13180664 -23.69833984 30.13180664 -23.68847656 29.09912109 C-23.55441847 19.77370512 -23.03114565 10.45503502 -22.52050781 1.14404297 C-16.77616697 0.80825687 -11.03209445 0.51476624 -5.28320312 0.26855469 C-3.52164983 0.18916337 -1.76046898 0.10060797 0 0 Z " fill="#E2E2E2" transform="translate(352.5205078125,330.85595703125)"/>
<path d="M0 0 C1.29210136 0.00212242 1.29210136 0.00212242 2.61030579 0.00428772 C5.36133294 0.00988485 8.11227869 0.02243679 10.86328125 0.03515625 C12.72851445 0.04017162 14.59374892 0.04473446 16.45898438 0.04882812 C21.03128136 0.05985333 25.6035175 0.07711598 30.17578125 0.09765625 C30.17026245 0.73554077 30.16474365 1.37342529 30.15905762 2.03063965 C30.13803373 4.61546351 30.12580315 7.20027769 30.11328125 9.78515625 C30.10071289 11.15317383 30.10071289 11.15317383 30.08789062 12.54882812 C30.08466797 13.43505859 30.08144531 14.32128906 30.078125 15.234375 C30.07288818 16.04608154 30.06765137 16.85778809 30.06225586 17.6940918 C30.18293579 20.24913248 30.63552979 22.60078323 31.17578125 25.09765625 C32.03648893 34.9461384 30.16961165 43.54964132 23.84375 51.28125 C17.9046462 57.74889231 12.00420493 61.71625283 3.17578125 63.09765625 C0.7391136 63.16467131 -1.69923617 63.18293646 -4.13671875 63.16015625 C-5.39097656 63.15113281 -6.64523437 63.14210938 -7.9375 63.1328125 C-8.89011719 63.12121094 -9.84273438 63.10960937 -10.82421875 63.09765625 C-11.5001719 61.68539699 -12.16461934 60.2676272 -12.82421875 58.84765625 C-13.19546875 58.05875 -13.56671875 57.26984375 -13.94921875 56.45703125 C-14.82421875 54.09765625 -14.82421875 54.09765625 -14.82421875 50.09765625 C-13.72999573 48.54933167 -13.72999573 48.54933167 -12.17797852 47.06079102 C-11.6006044 46.49662979 -11.02323029 45.93246857 -10.42835999 45.35121155 C-9.48155617 44.45419777 -9.48155617 44.45419777 -8.515625 43.5390625 C-7.87431137 42.91289536 -7.23299774 42.28672821 -6.57225037 41.6415863 C-3.82607742 38.96086253 -1.05701372 36.30422941 1.71020508 33.64526367 C3.72639927 31.70139078 5.7305306 29.74565079 7.734375 27.7890625 C8.67814247 26.89508507 8.67814247 26.89508507 9.64097595 25.98304749 C13.89301678 21.82867191 13.89301678 21.82867191 15.17578125 16.09765625 C12.26649858 15.6713978 10.08050684 15.4969656 7.55941772 17.1708374 C5.79515989 18.76747761 4.14260002 20.43070203 2.5 22.15234375 C1.8893721 22.76908966 1.2787442 23.38583557 0.64961243 24.02127075 C-1.29364083 25.99142956 -3.21477881 27.98172359 -5.13671875 29.97265625 C-6.44853657 31.30600051 -7.76167392 32.63804792 -9.07617188 33.96875 C-15.10739168 39.55706919 -15.10739168 39.55706919 -19.82421875 46.09765625 C-22.93969316 45.41882582 -25.67559596 44.35658723 -28.57421875 43.03515625 C-29.3734375 42.67292969 -30.17265625 42.31070313 -30.99609375 41.9375 C-31.599375 41.66035156 -32.20265625 41.38320313 -32.82421875 41.09765625 C-32.58787475 21.37367512 -32.58787475 21.37367512 -26.82421875 13.09765625 C-26.10234375 12.02515625 -25.38046875 10.95265625 -24.63671875 9.84765625 C-17.29821393 2.67222932 -10.10064978 -0.06224061 0 0 Z " fill="#E2E2E2" transform="translate(435.82421875,330.90234375)"/>
<path d="M0 0 C12.63038041 -0.49138368 22.41902422 0.20198568 32 9 C38.82769832 15.73480446 41.98348202 22.92355298 42.125 32.5625 C42.13268907 34.78079717 42.09126488 36.67083414 41.49780273 38.8112793 C40.92303165 41.33841162 40.88727883 43.61195869 40.90234375 46.203125 C40.90556641 47.1828125 40.90878906 48.1625 40.91210938 49.171875 C40.92048828 50.18765625 40.92886719 51.2034375 40.9375 52.25 C40.94201172 53.28125 40.94652344 54.3125 40.95117188 55.375 C40.96293912 57.91672573 40.97937989 60.45833319 41 63 C35.62899016 63.1245596 30.25883989 63.21478702 24.88671875 63.2746582 C23.06332738 63.29964279 21.24003452 63.33364279 19.41699219 63.37719727 C0.03249407 63.82836987 0.03249407 63.82836987 -8 58 C-8.57258545 57.61972656 -9.1451709 57.23945313 -9.73510742 56.84765625 C-15.66620819 52.48539176 -19.10255026 45.97106535 -21 39 C-21.35628221 36.04571072 -21.50409703 33.09719798 -21.625 30.125 C-21.66367187 29.34125 -21.70234375 28.5575 -21.7421875 27.75 C-21.83566622 25.83368633 -21.91888495 23.91687681 -22 22 C-18.04 20.35 -14.08 18.7 -10 17 C-9.12263184 17.90878906 -8.24526367 18.81757813 -7.34130859 19.75390625 C-4.08029554 23.12356888 -0.79942357 26.47329401 2.48779297 29.81738281 C3.90734963 31.2671014 5.32147328 32.72216088 6.72998047 34.18261719 C8.75642422 36.28189295 10.80167614 38.36114101 12.8515625 40.4375 C13.789431 41.42182007 13.789431 41.42182007 14.74624634 42.42602539 C18.43065782 46.16656468 18.43065782 46.16656468 23.44677734 47.41015625 C24.28934082 47.27480469 25.1319043 47.13945312 26 47 C25.77153805 41.38170108 22.13625872 38.62524777 18.33984375 34.94921875 C17.67537735 34.29041214 17.01091095 33.63160553 16.3263092 32.95283508 C14.20592181 30.85480345 12.07204056 28.77112094 9.9375 26.6875 C8.49583259 25.26589845 7.05506613 23.8433826 5.61523438 22.41992188 C2.08718225 18.93592667 -1.45303525 15.46473463 -5 12 C-3.39313833 7.97124393 -1.7179222 3.98245602 0 0 Z " fill="#E3E3E3" transform="translate(425,405)"/>
<path d="M0 0 C0.68384766 0.00902344 1.36769531 0.01804687 2.07226562 0.02734375 C3.73583287 0.05061042 5.39921631 0.08646833 7.0625 0.125 C7.78976052 1.6997294 8.49370422 3.28524279 9.1875 4.875 C9.77917969 6.19757813 9.77917969 6.19757813 10.3828125 7.546875 C11.0625 10.125 11.0625 10.125 10.27981567 12.10206604 C9.08976303 14.07969432 7.92398413 15.47691267 6.26513672 17.07006836 C5.70470673 17.61420883 5.14427673 18.1583493 4.56686401 18.71897888 C3.96472076 19.29511429 3.36257751 19.87124969 2.7421875 20.46484375 C1.47223408 21.70464583 0.20271587 22.94489384 -1.06640625 24.18554688 C-3.06735664 26.13062817 -5.07192641 28.07155423 -7.08447266 30.00463867 C-9.02840743 31.87610949 -10.95640953 33.76285451 -12.8828125 35.65234375 C-13.48900421 36.22645493 -14.09519592 36.8005661 -14.71975708 37.39207458 C-18.05321349 40.65800741 -18.05321349 40.65800741 -19.31591797 45.02954102 C-19.19104004 45.72104248 -19.06616211 46.41254395 -18.9375 47.125 C-16.73945691 47.68016204 -16.73945691 47.68016204 -13.9375 47.125 C-11.30598159 45.22330996 -9.13127332 42.89893797 -6.88671875 40.5625 C-6.22791214 39.89661865 -5.56910553 39.2307373 -4.89033508 38.54467773 C-2.78986707 36.41623258 -0.70744948 34.27106321 1.375 32.125 C2.79637058 30.67855117 4.21888368 29.23322409 5.64257812 27.7890625 C9.12927391 24.24725288 12.59988031 20.69034461 16.0625 17.125 C16.84133545 17.43743652 17.6201709 17.74987305 18.42260742 18.07177734 C21.94925991 19.47878547 25.5048553 20.79842062 29.0625 22.125 C28.70283705 35.45051237 27.36771427 46.01306705 17.5859375 55.953125 C7.95493035 64.24235097 -1.95046476 63.72954345 -13.9375 63.125 C-15.80597314 63.04389105 -17.67446321 62.96317142 -19.54296875 62.8828125 C-24.34345477 62.66516246 -29.14029227 62.40542133 -33.9375 62.125 C-33.92009766 60.24554688 -33.92009766 60.24554688 -33.90234375 58.328125 C-33.89296284 56.67708483 -33.88386296 55.02604304 -33.875 53.375 C-33.86662109 52.55 -33.85824219 51.725 -33.84960938 50.875 C-33.84477539 49.67617188 -33.84477539 49.67617188 -33.83984375 48.453125 C-33.83460693 47.7199707 -33.82937012 46.98681641 -33.82397461 46.23144531 C-33.94038159 44.07153253 -34.38993517 42.21199972 -34.9375 40.125 C-35.55717093 31.39881427 -35.72257008 23.72129875 -30.9375 16.125 C-30.525 15.42890625 -30.1125 14.7328125 -29.6875 14.015625 C-22.90615228 3.76654265 -11.93974223 -0.21132287 0 0 Z " fill="#E3E3E3" transform="translate(363.9375,404.875)"/>
<path d="M0 0 C5.06508622 2.35232469 8.29696266 5.20330032 10.8359375 10.28125 C11.34916098 15.43031185 11.45569596 19.88679346 9.3359375 24.65625 C4.96036576 29.25060032 0.73159601 32.52486451 -5.7890625 32.84375 C-10.17725734 32.57184808 -12.80114611 31.17492224 -16.1640625 28.28125 C-20.78687185 23.03373668 -21.5173725 19.9337061 -21.4453125 13.04296875 C-20.92086895 7.89322444 -18.28361908 5.26752603 -14.5390625 1.96875 C-9.93625226 -1.3016678 -5.35643766 -1.77903345 0 0 Z " fill="#E2E2E2" transform="translate(403.1640625,383.71875)"/>
<path d="M0 0 C4.10007872 0.38679988 6.11398775 1.78344381 9.3125 4.3125 C10.86274464 7.41298928 10.60242015 9.89144218 10.3125 13.3125 C8.51687595 16.06579021 7.25995078 17.83877461 4.3125 19.3125 C1 19.6875 1 19.6875 -2.6875 19.3125 C-6.2961524 16.33143932 -8.43967316 14.17120127 -9.0625 9.5 C-8.56704982 5.2886735 -6.84397263 4.00704981 -3.6875 1.3125 C-2.6875 0.3125 -2.6875 0.3125 0 0 Z " fill="#DCDCDC" transform="translate(272.6875,548.6875)"/>
<path d="M0 0 C0 0.33 0 0.66 0 1 C-8.58 1.33 -17.16 1.66 -26 2 C-19.07 2.33 -12.14 2.66 -5 3 C-5 3.33 -5 3.66 -5 4 C-5.65033203 4.00410889 -6.30066406 4.00821777 -6.97070312 4.01245117 C-34.15415575 4.30761549 -60.19023684 7.88406827 -86.07763672 16.43676758 C-88 17 -88 17 -90 17 C-90 15.68 -90 14.36 -90 13 C-59.66506774 4.0840046 -31.73788308 -0.65776248 0 0 Z " fill="#282828" transform="translate(409,146)"/>
<path d="M0 0 C4.98204139 4.13403434 9.56659962 8.50475038 14.08203125 13.14453125 C15.87004138 15.06021793 15.87004138 15.06021793 18 16 C18 16.66 18 17.32 18 18 C8.1 18 -1.8 18 -12 18 C-10.02 15.36 -8.04 12.72 -6 10 C-4.84118033 8.18785401 -3.70881898 6.35797539 -2.625 4.5 C-2.12226563 3.6440625 -1.61953125 2.788125 -1.1015625 1.90625 C-0.73804688 1.2771875 -0.37453125 0.648125 0 0 Z " fill="#DEDEDE" transform="translate(475,378)"/>
<path d="M0 0 C0.66 0 1.32 0 2 0 C2 9.9 2 19.8 2 30 C-2.36670004 26.25711426 -6.43141441 22.68596348 -10.4375 18.625 C-11.30246094 17.75101562 -12.16742188 16.87703125 -13.05859375 15.9765625 C-13.69925781 15.32429688 -14.33992188 14.67203125 -15 14 C-13.6971524 10.09145719 -12.12520183 9.62495489 -8.625 7.5625 C-4.87173236 5.34916143 -2.52578779 3.52525596 0 0 Z " fill="#D9D9D9" transform="translate(393,464)"/>
<path d="M0 0 C0.46148437 0.36351562 0.92296875 0.72703125 1.3984375 1.1015625 C6.69178927 5.18141861 12.21656675 8.65793406 18 12 C13.02838782 18.01826738 7.70170757 23.66337352 2 29 C1.67 29 1.34 29 1 29 C-0.1922117 19.33456945 -0.09622024 9.71824449 0 0 Z " fill="#DFDFDF" transform="translate(402,465)"/>
<path d="M0 0 C0 9.57 0 19.14 0 29 C-2.64 27.02 -5.28 25.04 -8 23 C-9.6407034 21.99786582 -11.30217 21.02697219 -13 20.125 C-13.763125 19.71507812 -14.52625 19.30515625 -15.3125 18.8828125 C-15.869375 18.59148437 -16.42625 18.30015625 -17 18 C-15.64526876 14.97328771 -14.1260408 12.87863194 -11.77734375 10.546875 C-11.15666016 9.928125 -10.53597656 9.309375 -9.89648438 8.671875 C-9.25001953 8.03765625 -8.60355469 7.4034375 -7.9375 6.75 C-7.28716797 6.1003125 -6.63683594 5.450625 -5.96679688 4.78125 C-1.14034598 0 -1.14034598 0 0 0 Z " fill="#DDDDDD" transform="translate(394,305)"/>
<path d="M0 0 C0.91330078 0.00451172 1.82660156 0.00902344 2.76757812 0.01367188 C4.99095738 0.0253126 7.21419121 0.04166149 9.4375 0.0625 C8.49203462 1.17545645 7.54514055 2.2871993 6.59765625 3.3984375 C5.80693726 4.3272876 5.80693726 4.3272876 5.00024414 5.27490234 C2.9209701 7.65335017 0.69962233 9.8583808 -1.5625 12.0625 C-2.490625 12.990625 -3.41875 13.91875 -4.375 14.875 C-5.4578125 15.9578125 -5.4578125 15.9578125 -6.5625 17.0625 C-10.13400242 15.87199919 -10.54048926 14.9779918 -12.5 11.875 C-13.27537109 10.66457031 -13.27537109 10.66457031 -14.06640625 9.4296875 C-14.56011719 8.64851563 -15.05382812 7.86734375 -15.5625 7.0625 C-16.35027082 5.87241198 -17.14126188 4.68443962 -17.9375 3.5 C-18.741875 2.2934375 -18.741875 2.2934375 -19.5625 1.0625 C-12.99550475 0.21406826 -6.61699407 -0.06311146 0 0 Z " fill="#D7D7D7" transform="translate(483.5625,402.9375)"/>
<path d="M0 0 C9.24 0 18.48 0 28 0 C25.03 3.96 25.03 3.96 22 8 C19.02062664 12.26395026 19.02062664 12.26395026 17 17 C14.10147635 15.68692628 12.01722783 14.27315362 9.765625 12.03125 C8.90517578 11.17466797 8.90517578 11.17466797 8.02734375 10.30078125 C7.44082031 9.70652344 6.85429687 9.11226563 6.25 8.5 C5.64800781 7.90574219 5.04601562 7.31148438 4.42578125 6.69921875 C3.85730469 6.12816406 3.28882813 5.55710937 2.703125 4.96875 C2.18395508 4.44732422 1.66478516 3.92589844 1.12988281 3.38867188 C0 2 0 2 0 0 Z " fill="#DADADA" transform="translate(304,404)"/>
<path d="M0 0 C4.0318506 1.3439502 5.32041925 2.42675465 7.375 6.125 C8.0352967 10.08678018 7.74050574 11.57674139 5.5 14.9375 C3.00480912 17.50607884 2.09330363 18.02922618 -1.4375 18.5 C-4.625 18.125 -4.625 18.125 -7.5 16.125 C-9.85263916 12.80362707 -10.44434893 11.0551218 -10.171875 7.06640625 C-8.72760112 1.93923399 -4.96542922 0.1712217 0 0 Z " fill="#1E1E1E" transform="translate(211.625,356.875)"/>
<path d="M0 0 C2.5625 1.5625 2.5625 1.5625 4 4 C4.61984499 8.26143432 4.49311964 10.24388322 2.125 13.875 C-0.37454287 16.37454287 -1.32175958 16.90956794 -4.8125 17.375 C-8 17 -8 17 -10.875 15 C-13.81148802 10.85436985 -13.7152453 9.00671711 -13 4 C-10.08766057 -1.06493813 -5.28401261 -0.94045729 0 0 Z " fill="#1D1D1D" transform="translate(256,265)"/>
<path d="M0 0 C3 2.5625 3 2.5625 5 6 C5.06817573 9.95419205 4.5665223 12.11622522 2.4375 15.4375 C-1.04746569 17.67145236 -3.97357614 17.78383251 -8 17 C-10.5 15.5625 -10.5 15.5625 -12 13 C-12.60318106 9.86920307 -12.65375511 7.12540822 -12 4 C-8.59050045 -0.2360449 -5.27828801 -0.94255143 0 0 Z " fill="#1F1F1F" transform="translate(243,281)"/>
<path d="M0 0 C1.33203125 1.9765625 1.33203125 1.9765625 2.8125 4.625 C5.25719531 8.99005919 7.67342191 12.0081063 11 16 C1.43 16.33 -8.14 16.66 -18 17 C-14.30105755 12.68456715 -10.73041245 8.57343709 -6.75 4.5625 C-5.47382813 3.26505859 -5.47382813 3.26505859 -4.171875 1.94140625 C-2 0 -2 0 0 0 Z " fill="#DEDEDE" transform="translate(322,380)"/>
<path d="M0 0 C4.03486756 2.01743378 5.91966024 3.77638863 9 7 C9.61875 7.598125 10.2375 8.19625 10.875 8.8125 C11.514375 9.43125 12.15375 10.05 12.8125 10.6875 C13.41707031 11.26886719 14.02164062 11.85023438 14.64453125 12.44921875 C16 14 16 14 16 16 C14.31874988 17.19542478 12.57751917 18.30712843 10.8125 19.375 C6.91024418 21.74665213 3.60538051 24.11569559 0 27 C0 18.09 0 9.18 0 0 Z " fill="#DCDCDC" transform="translate(402,307)"/>
<path d="M0 0 C3.80976174 0.5926296 8.99456177 1.61956177 11.8125 4.4375 C12.0757246 8.38586905 11.90247373 11.04129269 9.8125 14.4375 C6.1741749 13.85046528 3.30131932 12.88026618 0.0625 11.125 C-0.71609375 10.71636719 -1.4946875 10.30773437 -2.296875 9.88671875 C-4.1875 8.4375 -4.1875 8.4375 -5.0234375 6.41015625 C-5.1875 4.4375 -5.1875 4.4375 -4.0625 2.1875 C-2.1875 0.4375 -2.1875 0.4375 0 0 Z " fill="#1F1F1F" transform="translate(226.1875,298.5625)"/>
<path d="M0 0 C2 1 2 1 2.8515625 3.06640625 C3.56770833 5.37760417 4.28385417 7.68880208 5 10 C8.3 8.02 11.6 6.04 15 4 C13.83672541 9.40091774 12.57704144 14.70564659 11 20 C10.01 19.67 9.02 19.34 8 19 C8.33 16.69 8.66 14.38 9 12 C8.38125 12.495 7.7625 12.99 7.125 13.5 C5 15 5 15 3 15 C2.67 13.68 2.34 12.36 2 11 C1.34 11 0.68 11 0 11 C-0.33 12.65 -0.66 14.3 -1 16 C-1.99 16 -2.98 16 -4 16 C-3.39891424 10.34979382 -1.92471317 5.33835539 0 0 Z " fill="#2A2A2A" transform="translate(445,201)"/>
<path d="M0 0 C3.91408891 1.3046963 5.17921064 2.6995686 7.375 6.125 C6.385 6.785 5.395 7.445 4.375 8.125 C3.715 7.135 3.055 6.145 2.375 5.125 C-1.20857241 4.87484127 -1.20857241 4.87484127 -4.625 5.125 C-5.64040112 9.22723585 -5.64040112 9.22723585 -4.625 13.125 C-3.305 13.125 -1.985 13.125 -0.625 13.125 C-0.295 12.465 0.035 11.805 0.375 11.125 C-0.285 11.125 -0.945 11.125 -1.625 11.125 C-1.625 10.135 -1.625 9.145 -1.625 8.125 C0.355 8.785 2.335 9.445 4.375 10.125 C2.625 15.875 2.625 15.875 0.375 18.125 C-3.42246717 18.04244637 -5.1488072 17.55106724 -8 15 C-10.09046825 11.30147925 -10.37244854 9.31071183 -9.625 5.125 C-6.49148819 1.45649837 -4.86447322 0.16774046 0 0 Z " fill="#1F1F1F" transform="translate(488.625,216.875)"/>
<path d="M0 0 C0.33 0 0.66 0 1 0 C2.10228696 4.40914783 2.07654536 8.48382401 2 13 C2.66 13 3.32 13 4 13 C4.37125 11.7934375 4.37125 11.7934375 4.75 10.5625 C6 8 6 8 8.125 7.1875 C8.74375 7.125625 9.3625 7.06375 10 7 C9.41827275 10.9520518 7.44842259 13.22095053 4.9375 16.25 C4.20402344 17.14203125 3.47054687 18.0340625 2.71484375 18.953125 C2.14894531 19.62859375 1.58304688 20.3040625 1 21 C-1 19 -1 19 -1.1953125 16.6171875 C-1.16050781 15.25980469 -1.16050781 15.25980469 -1.125 13.875 C-1.10695313 12.96492187 -1.08890625 12.05484375 -1.0703125 11.1171875 C-1.03550781 10.06917969 -1.03550781 10.06917969 -1 9 C-1.7425 9.825 -2.485 10.65 -3.25 11.5 C-6 14 -6 14 -10 14 C-3.40446169 3.90882638 -3.40446169 3.90882638 0 0 Z " fill="#232323" transform="translate(515,233)"/>
<path d="M0 0 C0 0.99 0 1.98 0 3 C-1.98 3.66 -3.96 4.32 -6 5 C-6.67801034 7.90073181 -6.67801034 7.90073181 -7 11 C-5.10244856 13.34973818 -5.10244856 13.34973818 -1.875 13.125 C-0.451875 13.063125 -0.451875 13.063125 1 13 C0.67 12.01 0.34 11.02 0 10 C-0.99 10 -1.98 10 -3 10 C-2.1875 8.0625 -2.1875 8.0625 -1 6 C-0.01 5.67 0.98 5.34 2 5 C6 9.36363636 6 9.36363636 6 12.125 C4.62085367 14.71089937 3.63471716 15.64886299 1 17 C-1.78533876 17.52618309 -4.22253779 17.5976097 -7 17 C-10.23872519 14.32805171 -10.88915865 12.62071155 -11.625 8.5 C-11 5 -11 5 -8.3125 2.0625 C-5.03923099 0.02442685 -3.73296197 -0.548965 0 0 Z " fill="#1C1C1C" transform="translate(301,223)"/>
<path d="M0 0 C0.99 0.33 1.98 0.66 3 1 C1.68 6.61 0.36 12.22 -1 18 C-1.66 18 -2.32 18 -3 18 C-3.67154933 16.71086513 -4.33708859 15.41859796 -5 14.125 C-5.37125 13.40570312 -5.7425 12.68640625 -6.125 11.9453125 C-7 10 -7 10 -7 8 C-7.66 8 -8.32 8 -9 8 C-9.04898437 8.61488281 -9.09796875 9.22976563 -9.1484375 9.86328125 C-9.22320312 10.67152344 -9.29796875 11.47976563 -9.375 12.3125 C-9.44460938 13.11300781 -9.51421875 13.91351562 -9.5859375 14.73828125 C-10 17 -10 17 -12 20 C-13.33838733 17.54429825 -14.67086232 15.08570084 -16 12.625 C-16.3815625 11.92632813 -16.763125 11.22765625 -17.15625 10.5078125 C-20 5.2265625 -20 5.2265625 -20 3 C-17 4 -17 4 -15.83203125 5.84765625 C-15.49558594 6.57855469 -15.15914063 7.30945313 -14.8125 8.0625 C-14.46832031 8.79597656 -14.12414062 9.52945313 -13.76953125 10.28515625 C-13.51558594 10.85105469 -13.26164062 11.41695312 -13 12 C-11.12498358 8.43904445 -10.04669153 4.8877114 -9 1 C-6.13546142 4.41016497 -4.65296434 7.90694544 -3 12 C-2.01 8.04 -1.02 4.08 0 0 Z " fill="#3A3A3A" transform="translate(432,592)"/>
<path d="M0 0 C2 2 2 2 2.3125 4.9375 C2 8 2 8 0.4375 9.4375 C-0.2740625 10.2109375 -0.2740625 10.2109375 -1 11 C-0.76522801 14.64541845 -0.76522801 14.64541845 0 18 C-4.02939664 16.65686779 -4.63016687 14.80961157 -6.75 11.1875 C-7.38421875 10.12917969 -8.0184375 9.07085938 -8.671875 7.98046875 C-10 5 -10 5 -9.8125 2.6953125 C-9 1 -9 1 -7.25 -0.3125 C-4.43044481 -1.17403075 -2.79252868 -0.88185116 0 0 Z " fill="#2A2A2A" transform="translate(505,567)"/>
<path d="M0 0 C2.91517292 1.07401108 4.77810176 1.77810176 7 4 C7.25 6.5 7.25 6.5 7 9 C6.34 9.66 5.68 10.32 5 11 C4.01 11 3.02 11 2 11 C2.33 14.3 2.66 17.6 3 21 C2.34 21 1.68 21 1 21 C-0.20272819 18.59454362 -0.10071472 17.05003047 -0.0625 14.375 C-0.04896484 13.14910156 -0.04896484 13.14910156 -0.03515625 11.8984375 C-0.02355469 11.27195312 -0.01195312 10.64546875 0 10 C-3.76430913 11.25476971 -4.05044108 12.69422618 -6 16 C-6.66 16 -7.32 16 -8 16 C-6.49387553 10.66010414 -4.01822198 4.01822198 0 0 Z " fill="#2A2A2A" transform="translate(309,572)"/>
<path d="M0 0 C5.77759884 -0.12036664 11.27959989 0.1679418 17 1 C17 1.99 17 2.98 17 4 C14.03 4 11.06 4 8 4 C8 5.65 8 7.3 8 9 C10.97 9 13.94 9 17 9 C17 9.99 17 10.98 17 12 C11.39 12 5.78 12 0 12 C0 10.68 0 9.36 0 8 C1.65 8 3.3 8 5 8 C5 6.68 5 5.36 5 4 C3.35 4 1.7 4 0 4 C0 2.68 0 1.36 0 0 Z " fill="#292929" transform="translate(200,378)"/>
<path d="M0 0 C3.18203798 0.28667009 4.00041442 1.00047794 6.140625 3.46875 C6.83671875 4.4690625 7.5328125 5.469375 8.25 6.5 C8.95640625 7.5003125 9.6628125 8.500625 10.390625 9.53125 C12 12 12 12 12 13 C10.58297487 12.85769192 9.1663904 12.71099254 7.75 12.5625 C6.56664062 12.44068359 6.56664062 12.44068359 5.359375 12.31640625 C3 12 3 12 -1 11 C0.65 13.64 2.3 16.28 4 19 C0 19 0 19 -2.140625 16.8828125 C-2.83671875 15.97273437 -3.5328125 15.06265625 -4.25 14.125 C-4.95640625 13.22007812 -5.6628125 12.31515625 -6.390625 11.3828125 C-8 9 -8 9 -8 7 C-4.04 7.33 -0.08 7.66 4 8 C3.01 6.8553125 3.01 6.8553125 2 5.6875 C0 3 0 3 0 0 Z " fill="#1F1F1F" transform="translate(281,233)"/>
<path d="M0 0 C0.61875 0.37125 1.2375 0.7425 1.875 1.125 C5.21702295 2.5011271 7.70595277 1.14024712 11 0 C10.67 0.99 10.34 1.98 10 3 C6.5 4.5 6.5 4.5 3 6 C2.67 6.99 2.34 7.98 2 9 C4.31 9.33 6.62 9.66 9 10 C9 10.66 9 11.32 9 12 C3.147205 11.48517081 -2.3297637 10.54642808 -8 9 C-8.36190476 3.57142857 -8.36190476 3.57142857 -6.8125 1.125 C-4.35374792 -0.40112198 -2.85324516 -0.34795673 0 0 Z " fill="#272727" transform="translate(594,439)"/>
<path d="M0 0 C3.19199167 2.41556126 5.74716687 4.68003538 8 8 C9.96822886 6.03177114 9.66248381 2.65191291 10 0 C10.99 0 11.98 0 13 0 C12.67 5.61 12.34 11.22 12 17 C11.34 17 10.68 17 10 17 C8.2734375 15.03125 8.2734375 15.03125 6.375 12.5 C5.42753906 11.24703125 5.42753906 11.24703125 4.4609375 9.96875 C3.97882813 9.3190625 3.49671875 8.669375 3 8 C2.67 10.64 2.34 13.28 2 16 C1.01 16 0.02 16 -1 16 C-1.02725341 14.2709226 -1.04650987 12.54171824 -1.0625 10.8125 C-1.07410156 9.84957031 -1.08570313 8.88664063 -1.09765625 7.89453125 C-1.00486622 5.14423487 -0.62111685 2.67520409 0 0 Z " fill="#1E1E1E" transform="translate(410,196)"/>
<path d="M0 0 C0.66 0 1.32 0 2 0 C2.84584998 1.55575978 3.67618399 3.1199612 4.5 4.6875 C4.9640625 5.55761719 5.428125 6.42773438 5.90625 7.32421875 C7.0690332 10.1688848 7.38416329 11.96254889 7 15 C4.8125 17.375 4.8125 17.375 2 19 C-1.05447768 19 -2.38325799 18.56930031 -4.625 16.5 C-6.63361489 12.84797293 -7.80077816 8.9803959 -9 5 C-7.68 5 -6.36 5 -5 5 C-4.75765625 5.63808594 -4.5153125 6.27617187 -4.265625 6.93359375 C-3.93046875 7.75988281 -3.5953125 8.58617187 -3.25 9.4375 C-2.92515625 10.26121094 -2.6003125 11.08492187 -2.265625 11.93359375 C-1.18068448 14.1849879 -1.18068448 14.1849879 1.140625 14.78515625 C2.06101562 14.89150391 2.06101562 14.89150391 3 15 C2.79503906 14.32453125 2.59007812 13.6490625 2.37890625 12.953125 C2.10949219 12.06109375 1.84007812 11.1690625 1.5625 10.25 C1.29566406 9.36828125 1.02882813 8.4865625 0.75390625 7.578125 C-0.65534805 2.75891341 -0.65534805 2.75891341 -1 1 C-0.67 0.67 -0.34 0.34 0 0 Z " fill="#222222" transform="translate(319,211)"/>
<path d="M0 0 C2 2 2 2 2 7 C5.3 7.33 8.6 7.66 12 8 C12 8.66 12 9.32 12 10 C7.71 9.67 3.42 9.34 -1 9 C-0.175 9.94875 0.65 10.8975 1.5 11.875 C4 14.75 4 14.75 4 17 C0.16549144 15.45212498 -2.02555699 13.06277254 -4.75 10 C-5.54921875 9.113125 -6.3484375 8.22625 -7.171875 7.3125 C-9 5 -9 5 -9 3 C-8.34 3 -7.68 3 -7 3 C-7 2.34 -7 1.68 -7 1 C-4.48718205 -0.25640898 -2.78302919 -0.20872719 0 0 Z " fill="#232323" transform="translate(534,544)"/>
<path d="M0 0 C0.99 0.33 1.98 0.66 3 1 C3 3 3 3 1.5 4.625 C1.005 5.07875 0.51 5.5325 0 6 C0.33 6.99 0.66 7.98 1 9 C1.61875 8.505 2.2375 8.01 2.875 7.5 C5 6 5 6 7 6 C6.46968389 9.98186504 4.62243552 11.68498817 1.6875 14.3125 C0.51767578 15.38951172 0.51767578 15.38951172 -0.67578125 16.48828125 C-3 18 -3 18 -5.29296875 17.73046875 C-6.13794922 17.36888672 -6.13794922 17.36888672 -7 17 C-5.35 15.35 -3.7 13.7 -2 12 C-2.33 11.01 -2.66 10.02 -3 9 C-3.763125 9.309375 -4.52625 9.61875 -5.3125 9.9375 C-7.18789677 10.67893593 -9.08684652 11.36228217 -11 12 C-10.66179961 9.00354452 -9.99645313 7.99645948 -7.8203125 5.82421875 C-6.93085937 5.11910156 -6.04140625 4.41398437 -5.125 3.6875 C-4.24070312 2.96949219 -3.35640625 2.25148438 -2.4453125 1.51171875 C-1.63835938 1.01285156 -0.83140625 0.51398438 0 0 Z " fill="#1E1E1E" transform="translate(548,265)"/>
<path d="M0 0 C4.10007872 0.38679988 6.11398775 1.78344381 9.3125 4.3125 C10.86274464 7.41298928 10.60242015 9.89144218 10.3125 13.3125 C8.51687595 16.06579021 7.25995078 17.83877461 4.3125 19.3125 C1 19.6875 1 19.6875 -2.6875 19.3125 C-6.2961524 16.33143932 -8.43967316 14.17120127 -9.0625 9.5 C-8.56704982 5.2886735 -6.84397263 4.00704981 -3.6875 1.3125 C-2.6875 0.3125 -2.6875 0.3125 0 0 Z M-4.625 4.375 C-6.32652633 7.4777833 -6.11269574 9.85019185 -5.6875 13.3125 C-4.20756844 15.87588689 -4.20756844 15.87588689 -1.6875 17.3125 C1.3125 18.0625 1.3125 18.0625 4.3125 17.3125 C6.923411 15.36163936 6.923411 15.36163936 8.3125 12.3125 C8.4076654 8.64275482 8.4076654 8.64275482 7.3125 5.3125 C3.45308026 2.73955351 -0.38899261 2.05202821 -4.625 4.375 Z " fill="#303030" transform="translate(272.6875,548.6875)"/>
<path d="M0 0 C0.66 0.33 1.32 0.66 2 1 C2.625 4.0625 2.625 4.0625 3 7 C6.3 7.99 9.6 8.98 13 10 C12.67 10.99 12.34 11.98 12 13 C8.37 12.01 4.74 11.02 1 10 C1 10.66 1 11.32 1 12 C1.61875 12.2475 2.2375 12.495 2.875 12.75 C5.35068687 14.20628639 5.95125002 15.37812506 7 18 C3 18 3 18 0.421875 15.8125 C-0.45984375 14.884375 -1.3415625 13.95625 -2.25 13 C-3.14203125 12.071875 -4.0340625 11.14375 -4.953125 10.1875 C-5.62859375 9.465625 -6.3040625 8.74375 -7 8 C-6.67 7.34 -6.34 6.68 -6 6 C-4.02 6.495 -4.02 6.495 -2 7 C-1.34 4.69 -0.68 2.38 0 0 Z " fill="#212121" transform="translate(261,250)"/>
<path d="M0 0 C0.99 0 1.98 0 3 0 C4.06723961 3.46222615 4.10173486 6.64039266 4.0625 10.25 C4.05347656 11.32765625 4.04445313 12.4053125 4.03515625 13.515625 C4.02355469 14.33546875 4.01195312 15.1553125 4 16 C3.01 16 2.02 16 1 16 C1 13.36 1 10.72 1 8 C-0.65 8 -2.3 8 -4 8 C-3.67 10.97 -3.34 13.94 -3 17 C-4.32 17 -5.64 17 -7 17 C-7.33 11.72 -7.66 6.44 -8 1 C-7.01 1 -6.02 1 -5 1 C-4.67 2.32 -4.34 3.64 -4 5 C-2.68 5.33 -1.36 5.66 0 6 C0 4.02 0 2.04 0 0 Z " fill="#1A1A1A" transform="translate(381,196)"/>
<path d="M0 0 C2.97 0 5.94 0 9 0 C9 0.99 9 1.98 9 3 C7.35 3 5.7 3 4 3 C4 3.99 4 4.98 4 6 C5.32 6 6.64 6 8 6 C8 6.99 8 7.98 8 9 C6.68 9 5.36 9 4 9 C4 10.65 4 12.3 4 14 C5.65 14 7.3 14 9 14 C9 14.99 9 15.98 9 17 C6.03 17 3.06 17 0 17 C0 11.39 0 5.78 0 0 Z " fill="#2D2D2D" transform="translate(389,195)"/>
<path d="M0 0 C5.94 0 11.88 0 18 0 C13.5 6.75 13.5 6.75 10.75 9.875 C10.22921875 10.47054688 9.7084375 11.06609375 9.171875 11.6796875 C8.78515625 12.11539062 8.3984375 12.55109375 8 13 C7.01 12.67 6.02 12.34 5 12 C5.185625 11.2575 5.37125 10.515 5.5625 9.75 C5.99203108 7.05009037 5.85122974 5.55368923 5 3 C3.35 2.67 1.7 2.34 0 2 C0 1.34 0 0.68 0 0 Z " fill="#343434" transform="translate(560,310)"/>
<path d="M0 0 C5.7809725 0.63065155 11.3443706 1.65155132 17 3 C17 3.66 17 4.32 17 5 C15.11632409 6.42808918 13.1661573 7.76921391 11.1875 9.0625 C9.56908203 10.13177734 9.56908203 10.13177734 7.91796875 11.22265625 C5 13 5 13 2 14 C2 12.68 2 11.36 2 10 C2.66 10 3.32 10 4 10 C4 7.69 4 5.38 4 3 C2.68 3 1.36 3 0 3 C0 2.01 0 1.02 0 0 Z " fill="#2E2E2E" transform="translate(575,350)"/>
<path d="M0 0 C3.0625 0.375 3.0625 0.375 4.9375 2.25 C6.0625 4.375 6.0625 4.375 6.0625 6.375 C4.7425 6.705 3.4225 7.035 2.0625 7.375 C2.0625 6.055 2.0625 4.735 2.0625 3.375 C1.0725 3.375 0.0825 3.375 -0.9375 3.375 C-0.83050781 3.98988281 -0.72351563 4.60476563 -0.61328125 5.23828125 C-0.49339844 6.04652344 -0.37351562 6.85476563 -0.25 7.6875 C-0.12238281 8.48800781 0.00523437 9.28851563 0.13671875 10.11328125 C0.0625 12.375 0.0625 12.375 -1.2265625 14.17578125 C-2.9375 15.375 -2.9375 15.375 -6 15.25 C-8.9375 14.375 -8.9375 14.375 -10.9375 11.375 C-10.9375 10.055 -10.9375 8.735 -10.9375 7.375 C-9.9475 7.375 -8.9575 7.375 -7.9375 7.375 C-7.504375 8.3340625 -7.504375 8.3340625 -7.0625 9.3125 C-6.10926549 11.52706079 -6.10926549 11.52706079 -3.9375 12.375 C-4.03289063 11.67632812 -4.12828125 10.97765625 -4.2265625 10.2578125 C-4.33742188 9.34773438 -4.44828125 8.43765625 -4.5625 7.5 C-4.67851563 6.59507812 -4.79453125 5.69015625 -4.9140625 4.7578125 C-4.92179688 3.97148437 -4.92953125 3.18515625 -4.9375 2.375 C-2.9375 0.375 -2.9375 0.375 0 0 Z " fill="#2A2A2A" transform="translate(538.9375,255.625)"/>
<path d="M0 0 C0.66 0 1.32 0 2 0 C2.50744423 1.89385437 3.00564574 3.79018666 3.5 5.6875 C3.7784375 6.74324219 4.056875 7.79898438 4.34375 8.88671875 C4.9391715 11.71142672 5.12786492 14.12836708 5 17 C4.01 17 3.02 17 2 17 C2 15.68 2 14.36 2 13 C-0.31 13 -2.62 13 -5 13 C-5 13.66 -5 14.32 -5 15 C-5.99 15 -6.98 15 -8 15 C-7.341781 11.21298657 -5.61103933 8.46974164 -3.5625 5.25 C-2.94503906 4.26515625 -2.32757813 3.2803125 -1.69140625 2.265625 C-1.13324219 1.51796875 -0.57507813 0.7703125 0 0 Z " fill="#222222" transform="translate(433,199)"/>
<path d="M0 0 C-4.455 6.93 -4.455 6.93 -9 14 C-9.99 13.67 -10.98 13.34 -12 13 C-12 11.02 -12 9.04 -12 7 C-13.98 6.01 -15.96 5.02 -18 4 C-18 3.34 -18 2.68 -18 2 C-17.15695312 1.86722656 -16.31390625 1.73445313 -15.4453125 1.59765625 C-14.34960938 1.42105469 -13.25390625 1.24445313 -12.125 1.0625 C-10.48917969 0.80146484 -10.48917969 0.80146484 -8.8203125 0.53515625 C-2.58897638 -0.64724409 -2.58897638 -0.64724409 0 0 Z " fill="#292929" transform="translate(563,283)"/>
<path d="M0 0 C1.29132785 3.87398355 0.41113572 6.81988786 -0.4375 10.6875 C-0.58509766 11.38939453 -0.73269531 12.09128906 -0.88476562 12.81445312 C-1.2495932 14.54444194 -1.62388689 16.27242963 -2 18 C-2.66 17.67 -3.32 17.34 -4 17 C-4.103125 16.360625 -4.20625 15.72125 -4.3125 15.0625 C-4.82687402 12.73406422 -4.82687402 12.73406422 -7.4375 11.6875 C-9.96444412 10.70567636 -9.96444412 10.70567636 -12 12 C-12.66 11.67 -13.32 11.34 -14 11 C-14 10.34 -14 9.68 -14 9 C-11.69404616 7.37053772 -9.39803293 5.8564103 -7 4.375 C-6.33226562 3.95476562 -5.66453125 3.53453125 -4.9765625 3.1015625 C-3.32168546 2.06135408 -1.66133712 1.02985949 0 0 Z " fill="#353535" transform="translate(505,227)"/>
<path d="M0 0 C0.66 0 1.32 0 2 0 C2.67099984 2.60311992 3.33695338 5.20735398 4 7.8125 C4.19078125 8.55048828 4.3815625 9.28847656 4.578125 10.04882812 C5.35262914 13.10535341 6 15.83373478 6 19 C5.01 18.67 4.02 18.34 3 18 C3 16.35 3 14.7 3 13 C0.69 13 -1.62 13 -4 13 C-4.66 14.32 -5.32 15.64 -6 17 C-6.99 17 -7.98 17 -9 17 C-7.5143761 12.99624358 -5.63136615 9.38578153 -3.5 5.6875 C-2.58734375 4.08455078 -2.58734375 4.08455078 -1.65625 2.44921875 C-1.1096875 1.64097656 -0.563125 0.83273437 0 0 Z " fill="#2A2A2A" transform="translate(372,593)"/>
<path d="M0 0 C0.99 0 1.98 0 3 0 C4.0067004 2.26807204 5.00551766 4.53907754 6 6.8125 C6.28617187 7.45509766 6.57234375 8.09769531 6.8671875 8.75976562 C8.13711041 11.67756469 9 13.78265714 9 17 C8.01 16.67 7.02 16.34 6 16 C4.8125 12.4375 4.8125 12.4375 4 9 C2.02 9.33 0.04 9.66 -2 10 C-1.01 13.3 -0.02 16.6 1 20 C0.34 20.33 -0.32 20.66 -1 21 C-4.08880888 16.36678668 -8 9.70823589 -8 4 C-6.02 4.99 -6.02 4.99 -4 6 C-4 6.66 -4 7.32 -4 8 C-2.02 7.67 -0.04 7.34 2 7 C1.34 4.69 0.68 2.38 0 0 Z " fill="#303030" transform="translate(476,578)"/>
<path d="M0 0 C5.94 0 11.88 0 18 0 C16.1221143 3.75577141 14.28395764 6.15872236 11.5 9.25 C10.30890625 10.58804687 10.30890625 10.58804687 9.09375 11.953125 C7 14 7 14 5 14 C5.33 13.484375 5.66 12.96875 6 12.4375 C7.32010877 9.21973488 7.13242105 6.4429472 7 3 C4.69 3 2.38 3 0 3 C0 2.01 0 1.02 0 0 Z " fill="#292929" transform="translate(210,488)"/>
<path d="M0 0 C0.94875 0.04125 1.8975 0.0825 2.875 0.125 C2.875 1.115 2.875 2.105 2.875 3.125 C1.225 3.125 -0.425 3.125 -2.125 3.125 C-2.125 4.115 -2.125 5.105 -2.125 6.125 C-1.01125 6.24875 0.1025 6.3725 1.25 6.5 C4.875 7.125 4.875 7.125 6.875 9.125 C7.1875 12.125 7.1875 12.125 6.875 15.125 C3.4397952 17.41513653 1.889669 17.30342973 -2.125 17.125 C-1.795 15.805 -1.465 14.485 -1.125 13.125 C0.195 13.125 1.515 13.125 2.875 13.125 C3.205 12.135 3.535 11.145 3.875 10.125 C2.4828125 10.186875 2.4828125 10.186875 1.0625 10.25 C-2.125 10.125 -2.125 10.125 -5.125 8.125 C-5.4375 5.125 -5.4375 5.125 -5.125 2.125 C-3.125 0.125 -3.125 0.125 0 0 Z " fill="#242424" transform="translate(331.125,206.875)"/>
<path d="M0 0 C0.639375 0.804375 1.27875 1.60875 1.9375 2.4375 C3.40603502 4.2750504 3.40603502 4.2750504 5 6 C7.02408755 5.90997602 9.04544287 5.75358962 11.0625 5.5625 C12.16722656 5.46066406 13.27195312 5.35882813 14.41015625 5.25390625 C15.69212891 5.12822266 15.69212891 5.12822266 17 5 C17 5.99 17 6.98 17 8 C13.7 8.33 10.4 8.66 7 9 C7.825 10.258125 8.65 11.51625 9.5 12.8125 C12 16.625 12 16.625 12 20 C11.34 20 10.68 20 10 20 C9.29605388 18.68596724 8.63654342 17.3479743 8 16 C6.79613503 13.7349921 6.79613503 13.7349921 5 12 C1.57475154 11.28662513 -1.55105791 11.5178178 -5 12 C-4.67 11.01 -4.34 10.02 -4 9 C-0.9375 7.8125 -0.9375 7.8125 2 7 C1.484375 6.401875 0.96875 5.80375 0.4375 5.1875 C-0.036875 4.465625 -0.51125 3.74375 -1 3 C-0.67 2.01 -0.34 1.02 0 0 Z " fill="#313131" transform="translate(577,474)"/>
<path d="M0 0 C3.29714793 0.32971479 4.6226839 0.6226839 7 3 C6.625 6.625 6.625 6.625 6 10 C5.01 9.67 4.02 9.34 3 9 C3.33 7.35 3.66 5.7 4 4 C0.7074288 4.73976471 0.7074288 4.73976471 -0.875 8.0625 C-3 11 -3 11 -5.625 11.5 C-8 11 -8 11 -10 9 C-10.125 5.375 -10.125 5.375 -10 2 C-8.68 1.67 -7.36 1.34 -6 1 C-6.33 3.31 -6.66 5.62 -7 8 C-6.01 8 -5.02 8 -4 8 C-3.71125 7.05125 -3.4225 6.1025 -3.125 5.125 C-2 2 -2 2 0 0 Z " fill="#232323" transform="translate(590,379)"/>
<path d="M0 0 C2.31 1.65 4.62 3.3 7 5 C6.67 5.99 6.34 6.98 6 8 C4 7 2 6 0 5 C0.66 6.65 1.32 8.3 2 10 C0 10 -2 10 -4 10 C-4 13.11257569 -3.82638376 15.10765685 -3 18 C-5.88437779 16.70700306 -7.87219421 15.34058637 -10 13 C-8.65515286 8.95838045 -6.9494838 6.61321846 -3.875 3.6875 C-3.15054688 2.99011719 -2.42609375 2.29273438 -1.6796875 1.57421875 C-1.12539063 1.05472656 -0.57109375 0.53523437 0 0 Z " fill="#252525" transform="translate(529,245)"/>
<path d="M0 0 C3.4375 0.8125 3.4375 0.8125 7 2 C7.33 2.99 7.66 3.98 8 5 C5.03 4.505 5.03 4.505 2 4 C2 4.99 2 5.98 2 7 C2.99 7 3.98 7 5 7 C5 7.99 5 8.98 5 10 C3.35 9.67 1.7 9.34 0 9 C0 10.65 0 12.3 0 14 C1.32 14.66 2.64 15.32 4 16 C3.67 16.99 3.34 17.98 3 19 C0.36 18.01 -2.28 17.02 -5 16 C-4.39363767 10.23955788 -2.24341721 5.27985631 0 0 Z " fill="#202020" transform="translate(465,207)"/>
<path d="M0 0 C0.99 0 1.98 0 3 0 C2.67 1.98 2.34 3.96 2 6 C2.99 6 3.98 6 5 6 C5 5.01 5 4.02 5 3 C5.99 3 6.98 3 8 3 C7.67 4.65 7.34 6.3 7 8 C9.43717258 7.72965366 9.43717258 7.72965366 12 7 C12.66 6.01 13.32 5.02 14 4 C14.66 4 15.32 4 16 4 C15.67 6.64 15.34 9.28 15 12 C11.51669474 13.16110175 10.48147304 12.77231701 7.0625 11.6875 C6.20785156 11.42324219 5.35320312 11.15898437 4.47265625 10.88671875 C2.20360148 10.07301348 0.12625364 9.12972641 -2 8 C-1.34 5.36 -0.68 2.72 0 0 Z " fill="#222222" transform="translate(210,329)"/>
<path d="M0 0 C5.16976912 1.42168651 9.91991276 3.47935734 14 7 C15.25 10.0625 15.25 10.0625 15 13 C13.4375 15.4375 13.4375 15.4375 11 17 C4.94610124 17.28828089 -0.10736108 13.16184373 -5 10 C-4.34 9.34 -3.68 8.68 -3 8 C-2.11248047 8.54140625 -2.11248047 8.54140625 -1.20703125 9.09375 C-0.41683594 9.5578125 0.37335937 10.021875 1.1875 10.5 C1.96480469 10.9640625 2.74210938 11.428125 3.54296875 11.90625 C6.24103386 13.10729647 8.0806982 13.20741043 11 13 C10.89038955 10.59891961 10.89038955 10.59891961 10 8 C7.7211807 6.17590508 7.7211807 6.17590508 4.9375 4.8125 C3.26498945 3.92346564 1.61062499 2.99677518 0 2 C0 1.34 0 0.68 0 0 Z " fill="#282828" transform="translate(568,493)"/>
<path d="M0 0 C-0.33 1.32 -0.66 2.64 -1 4 C-2.32 4 -3.64 4 -5 4 C-4.67 4.66 -4.34 5.32 -4 6 C-2.68 6 -1.36 6 0 6 C0 6.99 0 7.98 0 9 C-0.99 9 -1.98 9 -3 9 C-2.67 10.65 -2.34 12.3 -2 14 C-0.02 13.67 1.96 13.34 4 13 C4 13.99 4 14.98 4 16 C1.09399739 17.25664978 -0.79604584 18 -4 18 C-4.67679658 16.274773 -5.34102 14.54461061 -6 12.8125 C-6.556875 11.36810547 -6.556875 11.36810547 -7.125 9.89453125 C-7.97636772 7.07817642 -8.17072647 4.91835561 -8 2 C-2.25 0 -2.25 0 0 0 Z " fill="#212121" transform="translate(347,202)"/>
<path d="M0 0 C0.66 0 1.32 0 2 0 C1.43159318 3.55254263 -0.25877199 6.19137754 -2.078125 9.25 C-3.23531353 11.44669687 -3.70240608 13.54485016 -4 16 C-2.02 16 -0.04 16 2 16 C2.2475 15.29875 2.495 14.5975 2.75 13.875 C4.17950641 10.58713526 5.81698049 7.84454057 8 5 C8.99 5 9.98 5 11 5 C5.12668123 17.10679388 5.12668123 17.10679388 -0.125 19.3125 C-3 19 -3 19 -5.4375 17.4375 C-7 15 -7 15 -7.125 12.3125 C-5.56110848 7.7077083 -3.12555065 3.73076337 0 0 Z " fill="#2C2C2C" transform="translate(291,562)"/>
<path d="M0 0 C5.80165739 0.97458672 10.83982722 2.01253155 16 5 C16.3559322 11.28813559 16.3559322 11.28813559 15 14 C11.05320206 15.97339897 6.70320171 14.55231159 2.69921875 13.25390625 C0.78402009 12.54293552 -1.11027138 11.77613854 -3 11 C-3 10.34 -3 9.68 -3 9 C-2.02160156 9.2165625 -2.02160156 9.2165625 -1.0234375 9.4375 C3.72620177 10.44627294 8.11409188 11.25715306 13 11 C12.67 9.35 12.34 7.7 12 6 C8.04 4.68 4.08 3.36 0 2 C0 1.34 0 0.68 0 0 Z " fill="#2C2C2C" transform="translate(583,456)"/>
<path d="M0 0 C3.29714793 0.32971479 4.6226839 0.6226839 7 3 C7.125 5.625 7.125 5.625 7 8 C6.01 8 5.02 8 4 8 C3.67 6.68 3.34 5.36 3 4 C2.34 4 1.68 4 1 4 C0.34 6.64 -0.32 9.28 -1 12 C-6.42465753 13.3260274 -6.42465753 13.3260274 -8.875 11.9375 C-10.44071111 9.24099753 -10.20391303 7.05869541 -10 4 C-9.01 4 -8.02 4 -7 4 C-6.67 5.65 -6.34 7.3 -6 9 C-5.34 9 -4.68 9 -4 9 C-3.566875 7.329375 -3.566875 7.329375 -3.125 5.625 C-2 2 -2 2 0 0 Z " fill="#171717" transform="translate(578,321)"/>
<path d="M0 0 C3.125 0.25 3.125 0.25 5.0625 1.375 C6.125 3.25 6.125 3.25 6 6.3125 C5.125 9.25 5.125 9.25 2.125 11.25 C-0.4375 11.0625 -0.4375 11.0625 -2.875 10.25 C-4.875 7.25 -4.875 7.25 -4.5625 4.125 C-3.65202703 0.31756757 -3.65202703 0.31756757 0 0 Z " fill="#D6D6D6" transform="translate(250.875,267.75)"/>
<path d="M0 0 C3.0625 0.3125 3.0625 0.3125 5 1.4375 C6.0625 3.3125 6.0625 3.3125 5.875 6.4375 C5.606875 7.38625 5.33875 8.335 5.0625 9.3125 C2.27386993 10.70681504 0.14171132 10.56910094 -2.9375 10.3125 C-5.08665785 7.08876323 -5.32036803 6.04546326 -4.9375 2.3125 C-2.9375 0.3125 -2.9375 0.3125 0 0 Z " fill="#DADADA" transform="translate(209.9375,360.6875)"/>
<path d="M0 0 C4.84297221 2.06352729 7.40927904 5.51220272 10 10 C10.625 13.3125 10.625 13.3125 10 16 C8.375 17.9375 8.375 17.9375 6 19 C3.125 18.9140625 3.125 18.9140625 0 18 C-2.3359375 15.49609375 -2.3359375 15.49609375 -4.375 12.4375 C-5.40753906 10.91962891 -5.40753906 10.91962891 -6.4609375 9.37109375 C-7.22277344 8.19740234 -7.22277344 8.19740234 -8 7 C-7.01 6.67 -6.02 6.34 -5 6 C-4.54109375 6.63808594 -4.0821875 7.27617188 -3.609375 7.93359375 C-2.99578125 8.75988281 -2.3821875 9.58617187 -1.75 10.4375 C-1.14671875 11.26121094 -0.5434375 12.08492187 0.078125 12.93359375 C2.10483324 15.11271704 3.0991395 15.64701919 6 16 C6.81975201 13.73247373 6.81975201 13.73247373 7 11 C5.60933161 8.52727277 5.60933161 8.52727277 3.5625 6.3125 C0 2.16438356 0 2.16438356 0 0 Z " fill="#282828" transform="translate(517,554)"/>
<path d="M0 0 C2.4375 0.8125 2.4375 0.8125 4.4375 2.8125 C4.75 5.8125 4.75 5.8125 4.4375 8.8125 C1.4375 10.8125 1.4375 10.8125 -1.75 10.4375 C-3.1421875 10.128125 -3.1421875 10.128125 -4.5625 9.8125 C-5.89328101 3.40055513 -5.89328101 3.40055513 -4.4375 0.8125 C-2.5625 -0.1875 -2.5625 -0.1875 0 0 Z " fill="#DDDDDD" transform="translate(239.5625,284.1875)"/>
<path d="M0 0 C-0.3125 1.875 -0.3125 1.875 -1 4 C-1.99 4.66 -2.98 5.32 -4 6 C-1.525 6.99 -1.525 6.99 1 8 C0.67 9.32 0.34 10.64 0 12 C-0.78375 11.690625 -1.5675 11.38125 -2.375 11.0625 C-6.89851578 9.73664193 -11.31431814 9.35188915 -16 9 C-16 8.01 -16 7.02 -16 6 C-15.11248047 5.72736328 -15.11248047 5.72736328 -14.20703125 5.44921875 C-9.79605684 4.04605397 -4.31941584 0 0 0 Z " fill="#272727" transform="translate(595,364)"/>
<path d="M0 0 C0 0.99 0 1.98 0 3 C-1.32 3 -2.64 3 -4 3 C-3.67 4.19625 -3.34 5.3925 -3 6.625 C-2.10734177 10.15791497 -1.81703955 13.34079109 -2 17 C-2.99 17 -3.98 17 -5 17 C-6.75747614 12.49646738 -7.19294408 8.82360189 -7 4 C-8.65 4 -10.3 4 -12 4 C-12 3.01 -12 2.02 -12 1 C-7.9472484 0.01751476 -4.16138263 -0.08159574 0 0 Z " fill="#242424" transform="translate(369,198)"/>
<path d="M0 0 C0.33 2.64 0.66 5.28 1 8 C0.34 8 -0.32 8 -1 8 C-1.33 6.35 -1.66 4.7 -2 3 C-3.32 3 -4.64 3 -6 3 C-5.67 4.65 -5.34 6.3 -5 8 C-5.66 8 -6.32 8 -7 8 C-7 6.68 -7 5.36 -7 4 C-9.64 4.33 -12.28 4.66 -15 5 C-14.67 7.31 -14.34 9.62 -14 12 C-14.66 12 -15.32 12 -16 12 C-17.87620422 8.83390538 -18.09662822 6.64167599 -18 3 C-15.93918639 2.49309416 -13.87626474 1.99475381 -11.8125 1.5 C-10.66394531 1.2215625 -9.51539063 0.943125 -8.33203125 0.65625 C-5.43181171 0.08504615 -2.93903615 -0.13283779 0 0 Z " fill="#1F1F1F" transform="translate(216,451)"/>
<path d="M0 0 C0.66 0.33 1.32 0.66 2 1 C1.125 5.875 1.125 5.875 0 7 C2.31 7.66 4.62 8.32 7 9 C7 9.66 7 10.32 7 11 C5.78763672 11.07347656 5.78763672 11.07347656 4.55078125 11.1484375 C3.48214844 11.22320312 2.41351562 11.29796875 1.3125 11.375 C-0.27111328 11.47941406 -0.27111328 11.47941406 -1.88671875 11.5859375 C-4.90677269 11.98760089 -7.24078054 12.74069019 -10 14 C-10 12.68 -10 11.36 -10 10 C-9.05125 9.773125 -8.1025 9.54625 -7.125 9.3125 C-3.83684116 8.32587067 -3.83684116 8.32587067 -2.75 5.5625 C-2.5025 4.716875 -2.255 3.87125 -2 3 C-1.34 2.01 -0.68 1.02 0 0 Z " fill="#252525" transform="translate(567,291)"/>
<path d="M0 0 C0.66 0 1.32 0 2 0 C1.67 1.32 1.34 2.64 1 4 C0.34 4 -0.32 4 -1 4 C-0.67 4.99 -0.34 5.98 0 7 C1.98 6.34 3.96 5.68 6 5 C5.34 6.98 4.68 8.96 4 11 C5.65 11.99 7.3 12.98 9 14 C9.45375 13.505 9.9075 13.01 10.375 12.5 C12 11 12 11 14 11 C12.59284684 14.40062014 10.97131772 15.89229698 8 18 C-0.44646925 10.70159453 -0.44646925 10.70159453 -4 7 C-2.92598892 4.08482708 -2.22189824 2.22189824 0 0 Z " fill="#2A2A2A" transform="translate(543,529)"/>
<path d="M0 0 C0.99 0 1.98 0 3 0 C4.19287411 3.87684087 5 6.91621923 5 11 C4.01 11 3.02 11 2 11 C2 10.01 2 9.02 2 8 C1.32453125 8.2165625 0.6490625 8.433125 -0.046875 8.65625 C-0.93890625 8.9346875 -1.8309375 9.213125 -2.75 9.5 C-3.63171875 9.7784375 -4.5134375 10.056875 -5.421875 10.34375 C-8 11 -8 11 -12 11 C-11.67 9.68 -11.34 8.36 -11 7 C-5.555 6.01 -5.555 6.01 0 5 C0 3.35 0 1.7 0 0 Z " fill="#1E1E1E" transform="translate(585,333)"/>
<path d="M0 0 C3 0.1875 3 0.1875 6 1 C6.66 1.99 7.32 2.98 8 4 C5.37886292 4 3.49064888 3.68707555 1 3 C1.45932772 5.57223523 1.9203581 6.90504236 3.625 8.9375 C5 11 5 11 4.75 13.625 C4 16 4 16 3 18 C-0.375 18.125 -0.375 18.125 -4 18 C-4.66 17.34 -5.32 16.68 -6 16 C-6 15.01 -6 14.02 -6 13 C-5.34 13 -4.68 13 -4 13 C-3.67 13.66 -3.34 14.32 -3 15 C-0.47266765 15.65555119 -0.47266765 15.65555119 2 16 C0.94124926 12.59687262 -0.00902154 9.98646769 -2 7 C-2.25 4.4375 -2.25 4.4375 -2 2 C-1.34 1.34 -0.68 0.68 0 0 Z " fill="#2B2B2B" transform="translate(335,584)"/>
<path d="M0 0 C0.99 0 1.98 0 3 0 C4.32 2.31 5.64 4.62 7 7 C6.401875 6.690625 5.80375 6.38125 5.1875 6.0625 C2.91043228 4.89790296 2.91043228 4.89790296 0 4 C0.33 5.98 0.66 7.96 1 10 C0.34 10 -0.32 10 -1 10 C-1.33 9.34 -1.66 8.68 -2 8 C-4.38564077 8.57584432 -6.66682784 9.22227595 -9 10 C-8.505 10.78375 -8.01 11.5675 -7.5 12.375 C-6 15 -6 15 -6 17 C-9.16115776 15.63016497 -9.9927092 15.0109362 -12 12 C-12 11.01 -12 10.02 -12 9 C-9.62890625 6.9921875 -9.62890625 6.9921875 -6.5625 4.875 C-5.55316406 4.17117188 -4.54382813 3.46734375 -3.50390625 2.7421875 C-2.67761719 2.16726563 -1.85132813 1.59234375 -1 1 C-0.67 0.67 -0.34 0.34 0 0 Z " fill="#292929" transform="translate(243,515)"/>
<path d="M0 0 C1.60294922 0.01353516 1.60294922 0.01353516 3.23828125 0.02734375 C4.04652344 0.03894531 4.85476562 0.05054688 5.6875 0.0625 C6.0175 2.7025 6.3475 5.3425 6.6875 8.0625 C6.0275 8.0625 5.3675 8.0625 4.6875 8.0625 C4.6875 6.0825 4.6875 4.1025 4.6875 2.0625 C3.3675 2.0625 2.0475 2.0625 0.6875 2.0625 C0.6875 4.0425 0.6875 6.0225 0.6875 8.0625 C0.0275 8.0625 -0.6325 8.0625 -1.3125 8.0625 C-1.3125 6.4125 -1.3125 4.7625 -1.3125 3.0625 C-3.9525 3.0625 -6.5925 3.0625 -9.3125 3.0625 C-9.3125 5.3725 -9.3125 7.6825 -9.3125 10.0625 C-9.9725 10.0625 -10.6325 10.0625 -11.3125 10.0625 C-11.3125 7.0925 -11.3125 4.1225 -11.3125 1.0625 C-7.47525828 0.15836327 -3.93747726 -0.04326898 0 0 Z " fill="#222222" transform="translate(204.3125,419.9375)"/>
<path d="M0 0 C-0.61277612 2.96175123 -1.25372522 4.38058783 -3 7 C-1.68 6.67 -0.36 6.34 1 6 C1.5625 7.9375 1.5625 7.9375 2 10 C1 11 1 11 -1.875 11.25 C-5 11 -5 11 -6.9375 9.875 C-8 8 -8 8 -7.875 4.9375 C-6.48603158 0.27453459 -4.70572215 0 0 0 Z " fill="#D2D2D2" transform="translate(301,226)"/>
<path d="M0 0 C0.66 0.33 1.32 0.66 2 1 C2 1.66 2 2.32 2 3 C-0.53162897 5.49772322 -3.27969905 7.70474607 -6 10 C-2.04 10.33 1.92 10.66 6 11 C6 11.66 6 12.32 6 13 C-0.27 13 -6.54 13 -13 13 C-10.23057665 9.53822081 -8.08464641 7.02487838 -4.8125 4.25 C-4.11769531 3.65703125 -3.42289063 3.0640625 -2.70703125 2.453125 C-2.14371094 1.97359375 -1.58039063 1.4940625 -1 1 C-0.67 0.67 -0.34 0.34 0 0 Z " fill="#252525" transform="translate(218,464)"/>
<path d="M0 0 C0.66 0 1.32 0 2 0 C2 1.32 2 2.64 2 4 C6.29 4.99 10.58 5.98 15 7 C15 7.99 15 8.98 15 10 C10.03083364 9.48594831 5.70973649 8.76615118 1 7 C0.34 8.32 -0.32 9.64 -1 11 C-2.26264601 6.70700357 -1.62950412 4.12168689 0 0 Z " fill="#171717" transform="translate(207,342)"/>
<path d="M0 0 C4.48525648 0.656379 8.66914029 1.70074209 13 3 C13.66 2.01 14.32 1.02 15 0 C15.99 0 16.98 0 18 0 C16.125 5.75 16.125 5.75 15 8 C10.07967365 7.36511918 5.25053721 5.54680948 1 3 C0.67 2.01 0.34 1.02 0 0 Z " fill="#1F1F1F" transform="translate(213,322)"/>
<path d="M0 0 C3.49107379 1.16369126 3.85222763 1.88973538 5.6875 4.9375 C6.34298828 6.00291016 6.34298828 6.00291016 7.01171875 7.08984375 C8 9 8 9 8 11 C5 10 5 10 3 8 C2.24074219 8.5053125 1.48148438 9.010625 0.69921875 9.53125 C-0.29464844 10.1809375 -1.28851563 10.830625 -2.3125 11.5 C-3.29863281 12.1496875 -4.28476563 12.799375 -5.30078125 13.46875 C-8 15 -8 15 -11 15 C-9.68374806 11.05124418 -7.94634602 10.45007287 -4.4375 8.3125 C-3.42558594 7.68988281 -2.41367188 7.06726563 -1.37109375 6.42578125 C-0.58863281 5.95527344 0.19382813 5.48476563 1 5 C0.67 3.35 0.34 1.7 0 0 Z " fill="#2D2D2D" transform="translate(233,499)"/>
<path d="M0 0 C5.94 0.99 5.94 0.99 12 2 C12 2.66 12 3.32 12 4 C10.35 4 8.7 4 7 4 C6.01 8.95 5.02 13.9 4 19 C3.01 19 2.02 19 1 19 C1.99 13.72 2.98 8.44 4 3 C2.68 2.67 1.36 2.34 0 2 C0 1.34 0 0.68 0 0 Z " fill="#2B2B2B" transform="translate(349,588)"/>
<path d="M0 0 C0 0.66 0 1.32 0 2 C-0.99 2.33 -1.98 2.66 -3 3 C-2.86722656 3.65226563 -2.73445313 4.30453125 -2.59765625 4.9765625 C-1.65517178 9.6408287 -0.74231297 14.29868454 0 19 C-0.99 18.67 -1.98 18.34 -3 18 C-3.94921875 15.6015625 -3.94921875 15.6015625 -4.6875 12.625 C-5.06455078 11.15933594 -5.06455078 11.15933594 -5.44921875 9.6640625 C-6 7 -6 7 -6 4 C-7.98 4.33 -9.96 4.66 -12 5 C-11.67 4.01 -11.34 3.02 -11 2 C-7.12137916 0.60955102 -4.13537997 0 0 0 Z " fill="#292929" transform="translate(462,585)"/>
<path d="M0 0 C0.66 -0.33 1.32 -0.66 2 -1 C1.67 0.32 1.34 1.64 1 3 C0.01 3 -0.98 3 -2 3 C-1.67 6.3 -1.34 9.6 -1 13 C-1.66 13 -2.32 13 -3 13 C-4.20272819 10.59454362 -4.10071472 9.05003047 -4.0625 6.375 C-4.05347656 5.55773437 -4.04445313 4.74046875 -4.03515625 3.8984375 C-4.02355469 3.27195312 -4.01195312 2.64546875 -4 2 C-7.76430913 3.25476971 -8.05044108 4.69422618 -10 8 C-10.66 8 -11.32 8 -12 8 C-9.67766773 -0.03884248 -8.39007605 -1.52546837 0 0 Z " fill="#212121" transform="translate(313,580)"/>
<path d="M0 0 C0.66 0.33 1.32 0.66 2 1 C1.67 3.64 1.34 6.28 1 9 C3.64 8.67 6.28 8.34 9 8 C9 8.66 9 9.32 9 10 C8.33613281 10.15855469 7.67226563 10.31710937 6.98828125 10.48046875 C1.14530864 12.0243783 -2.05740233 13.44137145 -6 18 C-6.66 18 -7.32 18 -8 18 C-7.0452856 15.87025249 -6.30591538 14.26686235 -4.53125 12.71875 C-2.48007489 10.41641059 -2.04784737 8.28890604 -1.3125 5.3125 C-1.06113281 4.31863281 -0.80976563 3.32476563 -0.55078125 2.30078125 C-0.36902344 1.54152344 -0.18726563 0.78226563 0 0 Z " fill="#232323" transform="translate(259,533)"/>
<path d="M0 0 C6.875 3.875 6.875 3.875 8 5 C9.51469448 5.23192865 11.03754562 5.41215238 12.5625 5.5625 C13.38878906 5.64628906 14.21507812 5.73007812 15.06640625 5.81640625 C15.70449219 5.87699219 16.34257813 5.93757813 17 6 C17 6.99 17 7.98 17 9 C16.05640625 8.94779297 16.05640625 8.94779297 15.09375 8.89453125 C8.94071219 8.69993216 4.62490422 9.50004257 -1 12 C-1 11.01 -1 10.02 -1 9 C0.98 8.01 2.96 7.02 5 6 C4.175 5.38125 3.35 4.7625 2.5 4.125 C1.675 3.42375 0.85 2.7225 0 2 C0 1.34 0 0.68 0 0 Z " fill="#292929" transform="translate(590,419)"/>
<path d="M0 0 C0.61875 0.37125 1.2375 0.7425 1.875 1.125 C5.21702295 2.5011271 7.70595277 1.14024712 11 0 C10 3 10 3 6.625 4.6875 C3 6 3 6 0 6 C-0.33 5.01 -0.66 4.02 -1 3 C-3.01508358 2.26676204 -3.01508358 2.26676204 -5 2 C-5.33 3.65 -5.66 5.3 -6 7 C-5.34 7.33 -4.68 7.66 -4 8 C-5.32 8.33 -6.64 8.66 -8 9 C-8.36190476 3.57142857 -8.36190476 3.57142857 -6.8125 1.125 C-4.35374792 -0.40112198 -2.85324516 -0.34795673 0 0 Z " fill="#1F1F1F" transform="translate(594,439)"/>
<path d="M0 0 C0.99 0 1.98 0 3 0 C3.99 1.98 4.98 3.96 6 6 C6.61875 5.175 7.2375 4.35 7.875 3.5 C8.57625 2.675 9.2775 1.85 10 1 C10.66 1 11.32 1 12 1 C10.87548273 3.9719385 9.77706209 6.33440687 8 9 C7.54605448 11.27912938 7.54605448 11.27912938 7.375 13.6875 C7.30023438 14.49574219 7.22546875 15.30398438 7.1484375 16.13671875 C7.09945313 16.75160156 7.05046875 17.36648438 7 18 C6.34 18 5.68 18 5 18 C4.96132813 17.14728516 4.96132813 17.14728516 4.921875 16.27734375 C4.49285581 10.43683251 3.11860383 6.92940606 0 2 C0 1.34 0 0.68 0 0 Z " fill="#272727" transform="translate(385,594)"/>
<path d="M0 0 C4.23303235 3.34704884 7.84329006 6.59973766 11 11 C10.67 11.99 10.34 12.98 10 14 C6.38522825 12.50198648 4.31379537 10.42462583 1.75 7.5 C1.04359375 6.7059375 0.3371875 5.911875 -0.390625 5.09375 C-2 3 -2 3 -2 1 C-1.34 0.67 -0.68 0.34 0 0 Z " fill="#202020" transform="translate(268,244)"/>
<path d="M0 0 C0 0.66 0 1.32 0 2 C-5.38027025 3.19088986 -10.45291384 4.2919519 -16 4 C-15.67 6.31 -15.34 8.62 -15 11 C-15.99 11 -16.98 11 -18 11 C-18 8.36 -18 5.72 -18 3 C-11.88595404 1.14256832 -6.41481258 -0.42765417 0 0 Z " fill="#2A2A2A" transform="translate(213,436)"/>
<path d="M0 0 C4.05530702 1.35176901 7.02527366 3.37272553 10.3515625 5.9765625 C12.10140537 7.26373154 12.10140537 7.26373154 15 7 C15.66 6.01 16.32 5.02 17 4 C17.66 4 18.32 4 19 4 C17.92598892 6.91517292 17.22189824 8.77810176 15 11 C11.08297932 10.71402283 8.33226926 8.31712289 5.25 6.0625 C4.26515625 5.35222656 3.2803125 4.64195312 2.265625 3.91015625 C1.51796875 3.27980469 0.7703125 2.64945313 0 2 C0 1.34 0 0.68 0 0 Z " fill="#292929" transform="translate(555,514)"/>
<path d="M0 0 C0.66 0.33 1.32 0.66 2 1 C1.76683515 5.04152406 1.5771041 7.33802764 -1.125 10.4375 C-4.73801923 12.40109741 -6.93995462 12.51673305 -11 12 C-13.4375 10.625 -13.4375 10.625 -15 9 C-15 8.34 -15 7.68 -15 7 C-13.948125 7.495 -13.948125 7.495 -12.875 8 C-9.63439857 9.12716572 -7.40426352 9.44403437 -4 9 C-1.17273053 6.36771463 -0.52215539 3.7595188 0 0 Z " fill="#212121" transform="translate(281,556)"/>
<path d="M0 0 C0.33 0.99 0.66 1.98 1 3 C1.99 3 2.98 3 4 3 C4.66 6.63 5.32 10.26 6 14 C5.01 13.67 4.02 13.34 3 13 C3 11.35 3 9.7 3 8 C2.01 7.67 1.02 7.34 0 7 C-0.99 6.67 -1.98 6.34 -3 6 C-1.125 1.125 -1.125 1.125 0 0 Z " fill="#606060" transform="translate(372,598)"/>
<path d="M0 0 C5.13906037 1.4132416 9.97230625 3.45293796 14 7 C15 10.3125 15 10.3125 15 13 C14.01 13 13.02 13 12 13 C11.77570312 12.24074219 11.55140625 11.48148437 11.3203125 10.69921875 C9.68182048 7.34952056 8.13246634 6.54331901 4.875 4.8125 C3.22207344 3.92516407 1.5879102 2.99903575 0 2 C0 1.34 0 0.68 0 0 Z " fill="#404040" transform="translate(568,493)"/>
<path d="M0 0 C0.99 0.33 1.98 0.66 3 1 C1.68 6.61 0.36 12.22 -1 18 C-1.66 18 -2.32 18 -3 18 C-4.0625 16.1875 -4.0625 16.1875 -5 14 C-4.67 13.01 -4.34 12.02 -4 11 C-3.67 11.33 -3.34 11.66 -3 12 C-2.01 8.04 -1.02 4.08 0 0 Z " fill="#2F2F2F" transform="translate(432,592)"/>
<path d="M0 0 C1.31225809 3.93677426 0.3393954 5.7794262 -0.9375 9.6875 C-1.31777344 10.86699219 -1.69804687 12.04648438 -2.08984375 13.26171875 C-2.39019531 14.16535156 -2.69054687 15.06898438 -3 16 C-3.99 15.67 -4.98 15.34 -6 15 C-4.44191344 4.44191344 -4.44191344 4.44191344 0 0 Z " fill="#1E1E1E" transform="translate(459,205)"/>
<path d="M0 0 C0.99 0 1.98 0 3 0 C3.50509208 2.24886238 4.00389179 4.49913869 4.5 6.75 C4.7784375 8.00296875 5.056875 9.2559375 5.34375 10.546875 C6 14 6 14 6 18 C5.34 18 4.68 18 4 18 C3.3304744 15.37569876 2.66426282 12.75063343 2 10.125 C1.80921875 9.37863281 1.6184375 8.63226562 1.421875 7.86328125 C0 2.2265625 0 2.2265625 0 0 Z " fill="#2C2C2C" transform="translate(441,590)"/>
<path d="M0 0 C5.4 -0.36 5.4 -0.36 7.875 1.125 C9.4682099 3.78034983 9.20214032 5.96789518 9 9 C8.01 9.495 8.01 9.495 7 10 C6.690625 8.824375 6.690625 8.824375 6.375 7.625 C5.19323388 4.69083714 5.19323388 4.69083714 1.875 3.6875 C0.92625 3.460625 -0.0225 3.23375 -1 3 C-0.67 2.01 -0.34 1.02 0 0 Z " fill="#171717" transform="translate(250,265)"/>
<path d="M0 0 C0.33 0 0.66 0 1 0 C1.20674944 5.78898419 0.59162079 10.42932723 -1 16 C-1.66 15.67 -2.32 15.34 -3 15 C-3.40729228 12.67843403 -3.74438677 10.3431213 -4 8 C-3.34 8 -2.68 8 -2 8 C-2.04125 7.05125 -2.0825 6.1025 -2.125 5.125 C-2 2 -2 2 0 0 Z " fill="#181818" transform="translate(504,229)"/>
<path d="M0 0 C3 1 3 1 4.16796875 2.77734375 C4.50441406 3.49019531 4.84085937 4.20304688 5.1875 4.9375 C5.70376953 6.00291016 5.70376953 6.00291016 6.23046875 7.08984375 C7 9 7 9 7 11 C7.66 11 8.32 11 9 11 C9 12.98 9 14.96 9 17 C5.8086921 15.40434605 4.88215291 12.15338879 3.375 9.0625 C3.05015625 8.41603516 2.7253125 7.76957031 2.390625 7.10351562 C0 2.26702009 0 2.26702009 0 0 Z " fill="#282828" transform="translate(412,595)"/>
<path d="M0 0 C0.99 0 1.98 0 3 0 C1.53181332 3.10742423 -0.20025 5.90471739 -2.125 8.75 C-2.93324219 9.94882812 -2.93324219 9.94882812 -3.7578125 11.171875 C-4.16773438 11.77515625 -4.57765625 12.3784375 -5 13 C-7.97 12.505 -7.97 12.505 -11 12 C-11 11.67 -11 11.34 -11 11 C-9.35 11 -7.7 11 -6 11 C-5.7525 10.29875 -5.505 9.5975 -5.25 8.875 C-3.82049359 5.58713526 -2.18301951 2.84454057 0 0 Z " fill="#3A3A3A" transform="translate(299,567)"/>
<path d="M0 0 C5.46864457 1.01591421 10.76390013 2.07091057 16 4 C16 4.66 16 5.32 16 6 C10.13190493 5.47606294 5.45126259 4.23891142 0 2 C0 1.34 0 0.68 0 0 Z " fill="#353535" transform="translate(580,465)"/>
<path d="M0 0 C3.29714793 0.32971479 4.6226839 0.6226839 7 3 C7.125 5.625 7.125 5.625 7 8 C6.01 8 5.02 8 4 8 C3.67 6.68 3.34 5.36 3 4 C1.68 4 0.36 4 -1 4 C-1.66 4.99 -2.32 5.98 -3 7 C-2.25 2.25 -2.25 2.25 0 0 Z " fill="#232323" transform="translate(578,321)"/>
<path d="M0 0 C1.65 0 3.3 0 5 0 C5.33 1.65 5.66 3.3 6 5 C4.68 5.99 3.36 6.98 2 8 C0.4375 5.6875 0.4375 5.6875 -1 3 C-0.67 2.01 -0.34 1.02 0 0 Z " fill="#DBDBDB" transform="translate(499,569)"/>
<path d="M0 0 C-0.33 0.99 -0.66 1.98 -1 3 C-2.65 3 -4.3 3 -6 3 C-5.67 5.31 -5.34 7.62 -5 10 C-5.66 10 -6.32 10 -7 10 C-8.85776765 6.86501708 -9.20140476 4.62528568 -9 1 C-5.846632 0.29925156 -3.27275026 0 0 0 Z " fill="#363636" transform="translate(207,453)"/>
<path d="M0 0 C1.79379098 0.44994757 3.58498928 0.91024143 5.375 1.375 C6.37273437 1.63023437 7.37046875 1.88546875 8.3984375 2.1484375 C11 3 11 3 13 5 C12.67 5.66 12.34 6.32 12 7 C8.37 6.01 4.74 5.02 1 4 C0.67 2.68 0.34 1.36 0 0 Z " fill="#161616" transform="translate(261,256)"/>
<path d="M0 0 C0.66 0.33 1.32 0.66 2 1 C0.68 2.32 -0.64 3.64 -2 5 C-1.34 5.33 -0.68 5.66 0 6 C-1.4036827 8.80736541 -3.10783413 8.96708362 -6 10 C-6.99 10.33 -7.98 10.66 -9 11 C-8.46324097 7.14896699 -6.88399077 5.68202413 -3.9375 3.25 C-3.20402344 2.63640625 -2.47054687 2.0228125 -1.71484375 1.390625 C-1.14894531 0.93171875 -0.58304688 0.4728125 0 0 Z " fill="#282828" transform="translate(546,266)"/>
<path d="M0 0 C0 0.99 0 1.98 0 3 C-4.455 4.485 -4.455 4.485 -9 6 C-9.33 7.98 -9.66 9.96 -10 12 C-10.33 12 -10.66 12 -11 12 C-11.375 8.8125 -11.375 8.8125 -11 5 C-7.58512753 1.26746497 -5.16019034 -0.75885152 0 0 Z " fill="#262626" transform="translate(301,223)"/>
<path d="M0 0 C1.875 0.1875 1.875 0.1875 4 1 C5.87679987 4.37823976 6.21849583 7.17632299 6 11 C5.01 11 4.02 11 3 11 C3 9.68 3 8.36 3 7 C2.01 6.67 1.02 6.34 0 6 C0.66 5.67 1.32 5.34 2 5 C1.34 3.35 0.68 1.7 0 0 Z " fill="#1E1E1E" transform="translate(432,205)"/>
<path d="M0 0 C4.95 0 9.9 0 15 0 C13.515 2.475 13.515 2.475 12 5 C11.01 5 10.02 5 9 5 C8.67 4.01 8.34 3.02 8 2 C5.36 1.67 2.72 1.34 0 1 C0 0.67 0 0.34 0 0 Z " fill="#7F7F7F" transform="translate(210,488)"/>
<path d="M0 0 C1.0625 1.875 1.0625 1.875 2 4 C1.67 4.66 1.34 5.32 1 6 C-0.65 6 -2.3 6 -4 6 C-4 6.66 -4 7.32 -4 8 C-4.99 8 -5.98 8 -7 8 C-6.875 6.25 -6.875 6.25 -6 4 C-2.9375 1.75 -2.9375 1.75 0 0 Z " fill="#424242" transform="translate(432,206)"/>
<path d="M0 0 C1.65 0.33 3.3 0.66 5 1 C5 2.65 5 4.3 5 6 C2.03 5.505 2.03 5.505 -1 5 C-0.67 3.35 -0.34 1.7 0 0 Z " fill="#CCCCCC" transform="translate(589,441)"/>
<path d="M0 0 C0 0.99 0 1.98 0 3 C-0.94875 2.95875 -1.8975 2.9175 -2.875 2.875 C-6.10244856 2.65026182 -6.10244856 2.65026182 -8 5 C-8.66 5 -9.32 5 -10 5 C-9.75 3.125 -9.75 3.125 -9 1 C-5.84213022 -1.36840234 -3.69270227 -1.02575063 0 0 Z " fill="#373737" transform="translate(505,567)"/>
<path d="M0 0 C1.32 0.99 2.64 1.98 4 3 C2.86280581 6.41158256 1.95657056 7.11854601 -1 9 C-1.66 9 -2.32 9 -3 9 C-3 7.68 -3 6.36 -3 5 C-2.34 4.67 -1.68 4.34 -1 4 C-0.34786708 1.97536745 -0.34786708 1.97536745 0 0 Z " fill="#202020" transform="translate(580,355)"/>
<path d="M0 0 C1.98 0.495 1.98 0.495 4 1 C4.33 2.32 4.66 3.64 5 5 C3.35 5.33 1.7 5.66 0 6 C-1.125 2.25 -1.125 2.25 0 0 Z " fill="#D0D0D0" transform="translate(309,575)"/>
<path d="M0 0 C0.33 0.66 0.66 1.32 1 2 C2.97888961 2.72693904 4.97954558 3.39816251 7 4 C6.67 4.99 6.34 5.98 6 7 C3.36 6.01 0.72 5.02 -2 4 C-1.34 2.68 -0.68 1.36 0 0 Z " fill="#292929" transform="translate(462,219)"/>
<path d="M0 0 C1.125 3.75 1.125 3.75 0 6 C-3.375 6.125 -3.375 6.125 -7 6 C-7.66 5.34 -8.32 4.68 -9 4 C-9 3.01 -9 2.02 -9 1 C-8.34 1 -7.68 1 -7 1 C-6.67 1.66 -6.34 2.32 -6 3 C-4.35 3 -2.7 3 -1 3 C-0.67 2.01 -0.34 1.02 0 0 Z " fill="#252525" transform="translate(338,596)"/>
<path d="M0 0 C0.99 0.33 1.98 0.66 3 1 C2.34 4.3 1.68 7.6 1 11 C0.01 11 -0.98 11 -2 11 C-1.34 7.37 -0.68 3.74 0 0 Z " fill="#393939" transform="translate(352,596)"/>
<path d="M0 0 C3.49107379 1.16369126 3.85222763 1.88973538 5.6875 4.9375 C6.34298828 6.00291016 6.34298828 6.00291016 7.01171875 7.08984375 C8 9 8 9 8 11 C7.01 10.67 6.02 10.34 5 10 C3.8125 6.9375 3.8125 6.9375 3 4 C2.34 4 1.68 4 1 4 C0.67 2.68 0.34 1.36 0 0 Z " fill="#363636" transform="translate(233,499)"/>
<path d="M0 0 C1.88391785 3.26545761 2.49287967 6.28111761 3 10 C2.01 9.67 1.02 9.34 0 9 C-0.73046875 7.15234375 -0.73046875 7.15234375 -1.1875 4.9375 C-1.34605469 4.20402344 -1.50460937 3.47054687 -1.66796875 2.71484375 C-1.77753906 2.14894531 -1.88710938 1.58304688 -2 1 C-1.34 0.67 -0.68 0.34 0 0 Z " fill="#393939" transform="translate(459,594)"/>
<path d="M0 0 C3 1 3 1 4.6875 3.875 C6 7 6 7 6 10 C5.01 9.67 4.02 9.34 3 9 C2.05078125 6.93359375 2.05078125 6.93359375 1.3125 4.4375 C1.06113281 3.61121094 0.80976563 2.78492188 0.55078125 1.93359375 C0.36902344 1.29550781 0.18726563 0.65742187 0 0 Z " fill="#2A2A2A" transform="translate(479,585)"/>
<path d="M0 0 C-0.33 1.65 -0.66 3.3 -1 5 C-1.99 5 -2.98 5 -4 5 C-4.66 3.68 -5.32 2.36 -6 1 C-4 0 -4 0 0 0 Z " fill="#DADADA" transform="translate(534,546)"/>
<path d="M0 0 C1.2065625 0.0309375 1.2065625 0.0309375 2.4375 0.0625 C1.7775 0.7225 1.1175 1.3825 0.4375 2.0625 C0.4375 3.3825 0.4375 4.7025 0.4375 6.0625 C-0.18125 5.876875 -0.8 5.69125 -1.4375 5.5 C-3.60410178 4.82563824 -3.60410178 4.82563824 -5.5625 6.0625 C-3.26136364 0.07954545 -3.26136364 0.07954545 0 0 Z " fill="#5D5D5D" transform="translate(226.5625,298.9375)"/>
<path d="M0 0 C4 2 4 2 6 5 C5.625 7.1875 5.625 7.1875 5 9 C4.34 9 3.68 9 3 9 C2.01 6.03 1.02 3.06 0 0 Z " fill="#393939" transform="translate(334,590)"/>
<path d="M0 0 C4.50802601 1.25805377 7.4912812 2.90407165 11 6 C6.64477147 5.49357808 3.55760365 4.61588503 0 2 C0 1.34 0 0.68 0 0 Z " fill="#272727" transform="translate(568,493)"/>
<path d="M0 0 C1.65 0 3.3 0 5 0 C4.01 0.33 3.02 0.66 2 1 C2.33 3.31 2.66 5.62 3 8 C2.01 8 1.02 8 0 8 C0 5.36 0 2.72 0 0 Z " fill="#373737" transform="translate(195,439)"/>
<path d="M0 0 C0.125 5.75 0.125 5.75 -1 8 C-1.99 8 -2.98 8 -4 8 C-3.74438677 5.6568787 -3.40729228 3.32156597 -3 1 C-1 0 -1 0 0 0 Z " fill="#222222" transform="translate(445,209)"/>
<path d="M0 0 C3.63 0 7.26 0 11 0 C8 2 8 2 6 2 C6 2.66 6 3.32 6 4 C5.34 4 4.68 4 4 4 C4 3.34 4 2.68 4 2 C2.68 2 1.36 2 0 2 C0 1.34 0 0.68 0 0 Z " fill="#0F0F0F" transform="translate(561,311)"/>
<path d="M0 0 C2.09350689 3.4019487 2.17942163 6.05272412 2 10 C1.34 10 0.68 10 0 10 C-1.36952673 7.26094655 -1.12621361 5.02912668 -1 2 C-0.67 1.34 -0.34 0.68 0 0 Z " fill="#343434" transform="translate(310,583)"/>
<path d="M0 0 C2.12508244 3.18762365 2.5020163 5.26512223 3 9 C2.01 9 1.02 9 0 9 C-1.36623674 6.26752652 -1.128426 4.01801098 -1 1 C-0.67 0.67 -0.34 0.34 0 0 Z " fill="#3D3D3D" transform="translate(265,554)"/>
<path d="M0 0 C0.80824219 0.11085938 1.61648438 0.22171875 2.44921875 0.3359375 C3.37154297 0.47902344 3.37154297 0.47902344 4.3125 0.625 C4.3125 1.285 4.3125 1.945 4.3125 2.625 C0.3525 2.295 -3.6075 1.965 -7.6875 1.625 C-4.33422361 -0.61051759 -3.78006343 -0.54783528 0 0 Z " fill="#323232" transform="translate(541.6875,551.375)"/>
<path d="M0 0 C-1.125 1.5625 -1.125 1.5625 -3 3 C-6.1875 2.6875 -6.1875 2.6875 -9 2 C-9 1.34 -9 0.68 -9 0 C-3.375 -1.125 -3.375 -1.125 0 0 Z " fill="#323232" transform="translate(582,507)"/>
<path d="M0 0 C1.65 0.33 3.3 0.66 5 1 C4.67 2.32 4.34 3.64 4 5 C1.525 4.01 1.525 4.01 -1 3 C-0.67 2.01 -0.34 1.02 0 0 Z " fill="#D0D0D0" transform="translate(230,304)"/>
<path d="M0 0 C0.66 0 1.32 0 2 0 C1.42647107 3.87132028 -0.48704352 6.08172796 -3 9 C-3 4.73350364 -2.43160605 3.36683915 0 0 Z " fill="#232323" transform="translate(291,562)"/>
<path d="M0 0 C0.66 0.33 1.32 0.66 2 1 C1.6875 4.375 1.6875 4.375 1 8 C0.01 8.66 -0.98 9.32 -2 10 C-2 6.38970831 -1.03907418 3.44193324 0 0 Z " fill="#181818" transform="translate(281,556)"/>
<path d="M0 0 C-0.33 0.99 -0.66 1.98 -1 3 C-6.20754717 5.26415094 -6.20754717 5.26415094 -10 4 C-9.67 3.34 -9.34 2.68 -9 2 C-2.88888889 0 -2.88888889 0 0 0 Z " fill="#303030" transform="translate(605,439)"/>
<path d="M0 0 C2.31 0.33 4.62 0.66 7 1 C6.01 2.98 5.02 4.96 4 7 C3.67 7 3.34 7 3 7 C2.814375 5.824375 2.814375 5.824375 2.625 4.625 C2.20882007 1.85942178 2.20882007 1.85942178 0 0 Z " fill="#151515" transform="translate(225,300)"/>
<path d="M0 0 C-1.15173355 2.46800047 -2.04783565 4.04783565 -4 6 C-4.99 5.67 -5.98 5.34 -7 5 C-5.22678182 1.07358831 -4.52021524 0 0 0 Z " fill="#252525" transform="translate(228,488)"/>
<path d="M0 0 C0.33 0.66 0.66 1.32 1 2 C3.01669827 3.13350534 3.01669827 3.13350534 5 4 C5 4.99 5 5.98 5 7 C2.37812506 5.95125002 1.20628639 5.35068687 -0.25 2.875 C-0.4975 2.25625 -0.745 1.6375 -1 1 C-0.67 0.67 -0.34 0.34 0 0 Z " fill="#1D1D1D" transform="translate(521,256)"/>
<path d="M0 0 C0.66 0.33 1.32 0.66 2 1 C2 2.65 2 4.3 2 6 C1.34 6 0.68 6 0 6 C0 6.99 0 7.98 0 9 C-0.66 8.67 -1.32 8.34 -2 8 C-1.125 1.125 -1.125 1.125 0 0 Z " fill="#2D2D2D" transform="translate(261,250)"/>
<path d="M0 0 C0.99 0.495 0.99 0.495 2 1 C2 1.66 2 2.32 2 3 C2.66 3 3.32 3 4 3 C4 4.98 4 6.96 4 9 C1.18167487 7.59083743 0.97406539 5.92219617 0 3 C0 2.01 0 1.02 0 0 Z " fill="#1E1E1E" transform="translate(417,603)"/>
<path d="M0 0 C1.32 0.33 2.64 0.66 4 1 C4 2.98 4 4.96 4 7 C3.34 7 2.68 7 2 7 C0.5393715 4.35261084 0 3.10551666 0 0 Z " fill="#222222" transform="translate(427,603)"/>
<path d="M0 0 C2.97 0 5.94 0 9 0 C9 0.66 9 1.32 9 2 C3.375 3.125 3.375 3.125 0 2 C0 1.34 0 0.68 0 0 Z " fill="#383838" transform="translate(259,541)"/>
<path d="M0 0 C2.97 0.33 5.94 0.66 9 1 C9 1.33 9 1.66 9 2 C5.7 2.33 2.4 2.66 -1 3 C-0.67 2.01 -0.34 1.02 0 0 Z " fill="#4B4B4B" transform="translate(573,483)"/>
<path d="M0 0 C0 0.99 0 1.98 0 3 C-2.64 3 -5.28 3 -8 3 C-7.67 2.34 -7.34 1.68 -7 1 C-4.61370553 0.38812962 -2.46459429 0 0 0 Z " fill="#2D2D2D" transform="translate(594,479)"/>
<path d="M0 0 C0.33 0 0.66 0 1 0 C1.33 2.64 1.66 5.28 2 8 C1.34 8 0.68 8 0 8 C-0.12375 7.195625 -0.2475 6.39125 -0.375 5.5625 C-0.684375 4.2940625 -0.684375 4.2940625 -1 3 C-1.66 2.67 -2.32 2.34 -3 2 C-2.01 2 -1.02 2 0 2 C0 1.34 0 0.68 0 0 Z " fill="#3D3D3D" transform="translate(215,451)"/>
</svg>
